<svg class="svg-defs" width="0" height="0">
  <defs>
    <!-- PATHS FOR RELIGION SYMBOLS -->
    <path id="cross" d="m -4.4245977,-50.241394 -0.011,25.91502 -33.2036263,-0.0139 -0.0041,9.7182 33.2036263,0.014 -0.02794,65.86729 9.718202,0.005 0.02788,-65.86739 33.2036237,0.0139 0.0042,-9.71821 -33.2036347,-0.0139 0.011,-25.91504 z" stroke="none" fill="var(--clr-icon)"></path>
    <g id="moon" fill="var(--clr-icon)">
      <path d="m -8.4723194,-42.552801 c -23.0634626,0.438709 -41.6453416,19.291926 -41.6453416,42.45970755 0,23.44249945 19.029768,42.47223845 42.4722376,42.47223845 10.9601664,0 20.9539634,-4.163031 28.4902324,-10.987655 -5.31334,3.05426 -11.4768986,4.798486 -18.041309,4.798486 -20.017746,0 -36.258016,-16.240269 -36.258016,-36.2580116 0,-20.0177414 16.24027,-36.2580094 36.258016,-36.2580094 6.6166167,0 12.824579,1.774181 18.166589,4.873658 -7.55066,-6.892437 -17.5943228,-11.100415 -28.6155124,-11.100414 -0.274717,0 -0.55341,-0.0052 -0.826896,0 z"></path>
      <path d="M 48.185572,0.49309472 11.707756,12.345455 34.252284,-18.684429 V 19.670614 L 11.707756,-11.359267 Z"></path>
    </g>
    <g id="star" transform="matrix(0.32358889,0,0,0.32358889,-0.29660998,-0.42265019)">
      <polygon points="-108,-63 0,125 108,-63" fill="none" stroke="var(--clr-icon)" stroke-width="24" id="triangle"></polygon>
      <polygon points="-108,-63 0,125 108,-63" fill="none" stroke="var(--clr-icon)" stroke-width="24" id="triangle" transform="rotate(180)"></polygon>
    </g>
    <path id="zoroastrian" d="M 5.2631043,46.779751 C -12.130769,48.309858 -24.942277,49.992312 -27.826836,28.884177 -29.277592,-26.08824 1.1726285,2.1480634 -2.5029031,-52.827714 13.158762,-25.475774 9.0049423,-21.436795 4.8265531,-4.4445154 7.3266221,-12.440402 12.497454,-8.7677187 16.574459,-40.672229 28.957994,-9.1785773 37.427187,44.707544 5.2631043,46.779751 Z" fill="var(--clr-icon)"></path>
    <path id="buddhist" transform="matrix(0.00799576,0,0,-0.00799576,-51.208066,51.17293)" d="m 6325,12719 c -39,-39 -115,-100 -170,-136 -141,-93 -202,-147 -232,-206 -50,-100 -40,-218 25,-280 27,-26 28,-29 18,-80 -6,-29 -21,-62 -33,-75 -13,-12 -23,-26 -23,-30 0,-5 -16,-25 -35,-45 -19,-20 -35,-42 -35,-50 0,-7 -11,-24 -25,-37 -24,-22 -25,-29 -25,-141 v -117 l -82,-11 c -859,-120 -1692,-459 -2374,-966 l -111,-83 -78,78 -77,77 -66,7 c -37,4 -83,8 -102,10 -82,9 -126,20 -145,36 -11,10 -30,23 -43,29 -16,9 -21,18 -17,32 4,10 -1,43 -9,72 -19,64 -69,120 -135,151 -63,29 -193,28 -316,-3 -59,-14 -137,-24 -227,-28 l -138,-6 v -128 c 0,-94 -5,-149 -20,-211 -26,-107 -36,-231 -21,-283 29,-107 119,-188 210,-189 42,-1 49,-5 78,-43 28,-37 32,-51 38,-132 4,-50 12,-94 16,-97 5,-3 9,-23 9,-46 0,-37 7,-47 81,-123 l 81,-83 -76,-101 C 1758,8810 1410,7963 1289,7103 l -11,-83 h -114 c -113,0 -115,0 -147,-30 -61,-56 -114,-100 -123,-100 -4,0 -19,-11 -33,-24 -15,-13 -48,-27 -79,-33 -51,-10 -53,-9 -87,23 -19,18 -51,38 -71,44 -52,17 -141,7 -200,-23 -63,-32 -108,-82 -191,-210 -36,-55 -103,-139 -148,-186 l -83,-86 80,-84 c 44,-47 114,-135 154,-197 116,-175 196,-234 321,-234 59,0 114,23 152,63 19,21 28,24 48,16 13,-5 35,-9 48,-9 13,0 35,-9 47,-21 59,-53 120,-99 132,-99 7,0 23,-11 36,-25 22,-24 29,-25 140,-25 h 116 l 23,-152 c 120,-821 467,-1657 959,-2309 l 80,-107 -80,-79 c -79,-79 -80,-80 -84,-139 -13,-163 -24,-227 -44,-249 -10,-11 -23,-30 -29,-42 -10,-20 -20,-23 -65,-23 -76,0 -140,-44 -181,-124 -42,-83 -44,-155 -10,-321 20,-95 27,-158 27,-239 -1,-63 4,-116 10,-123 7,-9 45,-13 128,-13 90,0 147,-6 237,-26 157,-34 247,-31 324,13 74,41 119,107 120,177 0,48 2,53 44,83 38,28 54,32 134,38 50,4 94,12 97,16 3,5 23,9 46,9 37,0 47,7 123,80 l 82,81 107,-80 c 678,-506 1517,-852 2344,-967 l 122,-17 v -117 c 0,-111 1,-118 25,-140 14,-13 25,-29 25,-36 0,-11 43,-69 97,-129 10,-12 23,-45 29,-75 11,-52 10,-55 -14,-74 -57,-45 -78,-156 -46,-249 23,-68 83,-129 211,-214 64,-42 153,-111 199,-154 46,-44 87,-79 92,-79 5,0 45,35 89,78 45,45 128,111 194,154 127,82 190,146 213,215 32,93 11,204 -46,249 -24,19 -25,22 -14,76 6,32 21,67 34,81 12,13 22,29 22,35 0,6 11,19 25,28 13,9 27,25 30,35 4,11 22,35 41,54 l 34,34 v 115 114 l 88,12 c 545,75 1077,240 1582,491 301,150 538,294 784,478 l 109,81 82,-79 c 71,-68 88,-80 126,-85 209,-27 239,-32 256,-47 10,-9 28,-22 41,-28 19,-10 22,-20 22,-65 0,-44 6,-62 33,-102 74,-110 197,-137 410,-90 90,20 147,26 236,26 78,0 121,4 129,12 8,8 12,51 12,129 0,89 6,146 26,236 47,213 20,336 -90,411 -40,26 -58,32 -102,32 -45,0 -55,3 -65,23 -6,12 -19,31 -29,42 -20,22 -31,90 -44,254 -3,51 -6,56 -82,132 -61,61 -76,83 -69,94 6,8 58,81 117,162 149,206 274,412 399,658 271,530 423,1010 522,1650 l 12,80 124,5 c 114,5 125,7 139,27 8,13 21,23 28,23 8,0 31,16 53,35 21,19 43,35 49,35 6,0 19,11 29,24 14,17 33,25 74,30 49,6 57,4 75,-15 33,-36 89,-59 147,-59 125,0 205,58 322,236 43,66 107,146 150,189 41,41 75,79 75,86 0,6 -36,50 -80,96 -45,47 -114,135 -154,197 -108,164 -170,213 -284,223 -73,7 -121,-8 -167,-51 -34,-33 -36,-33 -87,-23 -29,6 -66,21 -83,33 -16,13 -49,38 -73,56 -23,18 -58,48 -77,66 l -34,32 h -115 -114 l -11,83 c -56,402 -164,811 -316,1199 -71,182 -260,564 -362,733 -99,164 -205,322 -300,449 l -75,98 81,83 c 74,76 81,86 81,123 0,23 4,43 9,46 4,3 12,47 16,98 6,83 10,96 36,126 16,18 29,36 29,40 0,4 22,7 48,8 66,1 129,37 169,97 61,91 67,171 28,353 -19,87 -25,145 -25,234 0,76 -4,121 -11,126 -6,3 -66,8 -133,9 -84,2 -157,11 -241,29 -138,30 -191,32 -262,11 -55,-16 -134,-79 -158,-126 -8,-15 -15,-51 -15,-78 0,-42 -4,-52 -22,-62 -13,-6 -33,-20 -45,-31 -12,-12 -41,-22 -65,-25 -24,-2 -59,-6 -78,-8 -19,-2 -65,-7 -102,-11 l -66,-7 -77,-77 -78,-78 -111,83 c -662,492 -1517,847 -2301,954 -44,6 -95,14 -112,17 l -33,5 v 114 114 l -32,35 c -59,63 -98,113 -98,124 0,6 -11,19 -25,30 -14,11 -25,30 -25,44 0,12 -4,37 -9,55 -8,27 -6,35 16,55 70,65 83,171 35,273 -35,72 -76,110 -224,208 -62,42 -144,107 -183,146 -38,39 -74,71 -80,71 -6,0 -42,-32 -80,-71 z m -545,-2529 c 0,-23 14,-44 65,-95 36,-36 65,-68 65,-72 0,-4 9,-16 20,-27 17,-19 18,-28 9,-96 -6,-41 -32,-141 -60,-222 -69,-207 -66,-264 17,-338 21,-18 45,-48 55,-66 17,-34 17,-34 -7,-40 -13,-3 -36,-20 -50,-37 -34,-41 -29,-100 12,-136 l 28,-24 -37,-30 c -85,-67 -88,-128 -16,-346 64,-194 74,-281 39,-344 -13,-22 -35,-51 -49,-63 -23,-19 -26,-31 -31,-109 l -5,-87 -61,-23 c -33,-12 -80,-33 -103,-45 l -44,-22 -58,58 c -48,48 -64,57 -91,56 -62,-2 -132,19 -156,47 -51,59 -104,145 -162,262 -87,177 -128,214 -234,207 l -56,-3 v 43 c 0,35 -6,49 -30,74 -26,25 -36,29 -68,26 -20,-3 -44,-8 -53,-12 -24,-10 -39,41 -39,130 0,71 -1,76 -37,114 -26,30 -78,62 -183,115 -81,41 -172,94 -202,117 -63,48 -67,59 -74,202 -3,59 -9,86 -25,108 l -21,29 22,17 c 13,9 84,56 158,104 393,253 831,432 1307,533 150,32 155,32 155,-5 z m 1403,5 c 537,-111 1012,-318 1481,-646 5,-4 -1,-20 -12,-37 -17,-23 -23,-49 -26,-108 -8,-146 -10,-154 -79,-205 -34,-26 -126,-79 -204,-118 -186,-94 -230,-145 -216,-249 7,-54 -13,-116 -36,-106 -9,4 -32,9 -52,11 -28,4 -41,-1 -67,-25 -27,-25 -32,-37 -32,-74 v -43 l -50,3 c -113,8 -145,-21 -250,-227 -99,-194 -156,-264 -227,-279 -27,-6 -63,-10 -81,-10 -27,1 -43,-8 -91,-56 l -58,-58 -44,22 c -23,12 -70,33 -103,45 l -61,23 -6,88 c -6,83 -8,89 -38,113 -17,14 -31,31 -31,37 0,6 -7,18 -16,25 -14,11 -16,28 -12,99 4,67 16,118 57,239 72,218 69,280 -16,349 l -38,30 27,22 c 58,45 43,147 -25,169 l -34,12 18,37 c 10,20 32,46 47,56 89,59 94,132 22,346 -60,180 -71,263 -44,320 10,22 29,45 42,51 12,7 22,15 22,19 0,3 16,25 35,47 24,28 35,51 35,72 0,39 3,39 163,6 z M 3281,8634 c 13,-11 43,-17 111,-19 107,-3 145,-11 172,-34 34,-30 95,-128 156,-254 34,-69 77,-141 96,-161 40,-41 95,-59 152,-50 54,8 116,-12 106,-35 -4,-9 -9,-33 -12,-53 -3,-32 1,-42 26,-68 25,-24 39,-30 74,-30 h 43 l -3,-69 -4,-70 43,-46 c 33,-35 71,-60 159,-102 129,-62 232,-126 271,-169 30,-33 41,-70 39,-132 -1,-39 4,-48 59,-105 l 59,-62 -39,-95 c -22,-52 -43,-101 -48,-109 -5,-11 -24,-14 -72,-12 -73,3 -111,-11 -134,-46 -9,-12 -21,-23 -27,-23 -6,0 -22,-9 -34,-21 -21,-20 -26,-21 -110,-9 -49,6 -150,32 -235,61 -209,69 -269,66 -337,-18 l -30,-38 -25,26 c -51,56 -145,41 -167,-27 l -11,-34 -37,19 c -20,11 -47,33 -60,51 -64,86 -131,91 -340,21 -81,-27 -179,-54 -218,-61 -69,-11 -71,-11 -112,16 -23,15 -42,31 -42,35 0,3 -25,27 -56,53 -38,31 -66,46 -85,46 -36,0 -37,11 -9,146 85,413 236,814 440,1169 72,126 203,325 214,325 5,0 17,-7 27,-16 z m 6348,-80 c 280,-423 469,-870 571,-1354 38,-180 38,-190 1,-190 -19,0 -47,-15 -85,-46 -31,-26 -56,-50 -56,-53 0,-4 -19,-20 -41,-35 l -42,-27 -86,15 c -47,9 -144,36 -216,61 -188,65 -256,61 -322,-20 -16,-19 -46,-44 -66,-54 l -36,-18 -12,34 c -21,66 -115,80 -166,25 l -24,-26 -30,37 c -69,84 -130,87 -338,18 -82,-28 -187,-55 -235,-62 -83,-12 -87,-11 -109,9 -13,12 -27,22 -33,22 -5,0 -21,14 -36,32 -26,32 -30,33 -111,36 l -85,4 -44,108 -45,109 59,58 c 55,54 58,60 59,108 0,27 5,66 12,85 17,50 111,121 247,187 222,107 250,135 250,247 v 66 h 41 c 32,0 47,6 71,30 25,26 29,36 26,68 -3,20 -8,44 -12,53 -10,23 52,43 109,36 58,-8 109,8 149,48 19,19 65,96 105,177 39,79 90,168 115,199 51,64 65,70 210,74 65,2 93,7 104,19 9,9 21,16 27,16 5,0 39,-43 74,-96 z m -263,-2682 51,-52 h 66 c 49,0 91,9 169,36 204,71 331,92 358,59 7,-8 16,-15 21,-15 4,0 38,-29 76,-65 50,-48 75,-65 96,-65 34,0 34,-7 1,-169 -98,-475 -312,-981 -587,-1383 -32,-49 -61,-88 -64,-88 -3,0 -18,9 -33,20 -22,16 -49,21 -112,24 -99,5 -137,13 -162,35 -34,30 -95,128 -156,254 -40,80 -75,138 -100,162 -39,38 -41,39 -140,45 -103,8 -135,19 -112,42 7,7 12,29 12,51 0,55 -43,97 -100,97 h -42 l 4,43 c 11,108 -29,155 -207,244 -141,71 -226,125 -266,169 -31,35 -51,101 -43,142 6,28 0,38 -53,93 l -60,62 46,108 46,109 h 73 c 78,0 106,9 135,47 10,12 24,23 32,23 7,0 19,7 26,16 26,31 153,14 327,-45 216,-72 281,-69 351,16 l 31,38 23,-28 c 46,-57 144,-42 167,27 l 11,33 32,-16 c 18,-10 55,-41 83,-69 z m -5792,45 c 26,-63 123,-75 166,-20 l 21,27 30,-37 c 70,-85 132,-88 349,-16 199,66 285,75 347,36 23,-15 45,-33 50,-40 15,-26 52,-37 126,-37 h 74 l 45,-109 44,-108 -59,-62 c -53,-55 -59,-65 -53,-92 3,-16 0,-51 -7,-76 -18,-70 -90,-127 -277,-223 -113,-57 -168,-91 -194,-120 -34,-38 -36,-43 -36,-113 v -73 l -40,4 c -33,3 -44,-1 -70,-26 -23,-23 -30,-39 -30,-69 0,-22 5,-44 12,-51 23,-23 -9,-36 -97,-39 -135,-3 -163,-27 -255,-213 -63,-126 -122,-222 -156,-251 -25,-22 -63,-30 -162,-35 -63,-3 -90,-8 -112,-24 -15,-11 -30,-20 -33,-20 -8,0 -121,170 -190,288 -202,341 -361,740 -446,1118 -17,72 -33,153 -37,182 l -7,52 h 29 c 22,0 46,16 97,65 38,36 72,65 76,65 5,0 14,7 21,15 27,33 153,13 348,-55 88,-31 128,-40 179,-40 h 66 l 51,52 c 45,46 85,75 108,77 4,1 14,-14 22,-32 z M 5840,4659 c 0,-72 14,-124 34,-132 8,-3 28,-26 45,-52 28,-42 31,-52 25,-98 -9,-74 -30,-155 -75,-288 -59,-174 -53,-241 28,-308 l 38,-32 -21,-17 c -65,-52 -54,-147 20,-172 l 33,-11 -17,-33 c -9,-19 -33,-48 -54,-66 -81,-71 -86,-137 -26,-310 44,-126 57,-175 70,-263 11,-73 6,-80 -131,-222 -18,-18 -29,-41 -29,-57 0,-35 -7,-35 -167,-2 -481,99 -979,310 -1386,587 l -88,60 20,21 c 16,17 21,39 25,128 2,59 10,120 18,135 20,43 101,98 253,174 146,72 166,85 203,133 18,24 22,41 22,101 0,97 23,161 45,125 3,-5 24,-10 46,-10 57,0 99,42 99,99 v 41 h 70 c 69,0 72,1 116,42 34,31 59,71 104,165 63,131 119,220 168,266 25,24 40,29 105,34 l 75,6 57,57 56,57 110,-46 109,-46 z m 1512,41 c 66,1 100,-10 136,-44 43,-40 107,-143 172,-277 75,-156 137,-205 240,-192 l 40,6 v -42 c 0,-58 41,-101 97,-101 22,0 44,5 51,12 22,22 37,-9 39,-85 1,-40 2,-82 2,-95 2,-47 73,-105 223,-180 156,-78 236,-133 256,-175 8,-15 16,-76 18,-135 4,-89 9,-111 25,-128 l 20,-21 -88,-60 c -281,-191 -665,-380 -984,-481 -203,-65 -560,-148 -574,-134 -3,3 -5,18 -5,33 0,27 -77,132 -106,143 -7,3 -14,12 -14,19 0,8 -7,20 -15,27 -33,27 -11,164 56,352 61,171 53,244 -35,314 -20,16 -36,37 -36,47 0,10 -7,20 -15,23 -24,10 -17,22 20,34 75,25 86,120 21,172 l -21,17 38,32 c 85,70 88,130 16,348 -63,191 -74,284 -40,346 11,21 33,49 48,61 26,20 28,28 31,106 l 4,84 106,45 107,45 62,-58 c 57,-54 66,-59 105,-58 z" fill="var(--clr-icon)"></path>
    <g id="manichaeism" fill="none" stroke="var(--clr-icon)" stroke-width="10">
      <circle r="40"></circle>
      <line x0="0" y0="0" x1="2.4492935982947065e-15" y1="40"></line>
      <line x0="0" y0="0" x1="38.04226065180614" y1="12.360679774997896"></line>
      <line x0="0" y0="0" x1="23.511410091698927" y1="-32.3606797749979"></line>
      <line x0="0" y0="0" x1="-23.51141009169892" y1="-32.3606797749979"></line>
      <line x0="0" y0="0" x1="-38.042260651806146" y1="12.360679774997891"></line>
    </g>
    <path id="undefined" fill="none" stroke="var(--clr-error)" stroke-width="20" d="M -40,-40 L 40,40 M -40,40 L 40,-40"></path>
    <g id="others" fill="none" stroke="var(--clr-icon)" stroke-width="10">
      <circle x="0" y="0" r="35"></circle>
      <circle x="0" y="0" r="15" stroke="none" fill="var(--clr-icon)"></circle>
    </g>

    <!-- SVG FILTERS FOR Chrome/WebKit -->
    <filter id="filter-muted">
      <feColorMatrix in="SourceGraphic"
        type="saturate"
        values="0.3" />
    </filter>
    <filter id="filter-darker">
      <feComponentTransfer>
        <feFuncR type="linear" slope="0.4"/>
        <feFuncG type="linear" slope="0.4"/>
        <feFuncB type="linear" slope="0.4"/>
      </feComponentTransfer>
    </filter>
    <filter id="filter-muted-darker">
      <feColorMatrix in="SourceGraphic"
        type="saturate"
        values="0.3" />
      <feComponentTransfer>
        <feFuncR type="linear" slope="0.4"/>
        <feFuncG type="linear" slope="0.4"/>
        <feFuncB type="linear" slope="0.4"/>
      </feComponentTransfer>
    </filter>
    <filter id="filter-drop-shadow-white"
            x="-50%" y="-50%" width="200%" height="200%">
      <feColorMatrix type="matrix"
                     values="0 0 0 0 1
                             0 0 0 0 1
                             0 0 0 0 1
                             0 0 0 1 0"
                     in="SourceGraphic"
                     result="shadow" />
      <feGaussianBlur in="shadow" stdDeviation="4" result="blur" />
      <feComponentTransfer in="blur" out="blur-weak">
        <feFuncA type="linear" slope="0.35" />
      </feComponentTransfer>

      <!-- merge shadow and image -->
      <feMerge>
        <feMergeNode in="blur-weak" />
        <feMergeNode in="SourceGraphic" />
      </feMerge>
    </filter>
    <filter id="filter-drop-shadow-black"
            x="-50%" y="-50%" width="200%" height="200%">
      <feColorMatrix type="matrix"
                     values="0 0 0 0 0
                             0 0 0 0 0
                             0 0 0 0 0
                             0 0 0 1 0"
                     in="SourceGraphic"
                     result="shadow" />
      <feGaussianBlur in="shadow" stdDeviation="4" result="blur" />
      <feComponentTransfer in="blur" out="blur-weak">
        <feFuncA type="linear" slope="0.35" />
      </feComponentTransfer>

      <!-- merge shadow and image -->
      <feMerge>
        <feMergeNode in="blur-weak" />
        <feMergeNode in="SourceGraphic" />
      </feMerge>
    </filter>
  </defs>
</svg>
