<svg xmlns="http://www.w3.org/2000/svg" version="1.0" width="708.661" height="698.252"><defs><clipPath id="a"><path d="M678.61 470.55h145.56v90.71H678.61v-90.71z"/></clipPath></defs><g clip-path="url(#a)" transform="matrix(8.08442 0 0 -8.08442 -5921.435 4536.412)" style="fill:none;stroke:none"><path d="m769.06 528.99-.07-.08.13-.04.73-.18.73-.54.38-.46.38-.26s.24.18.06.38l-.23.27-.44.53-.28.16-.35.13-.39.08-.39.03-.26-.02zm.34-2.94s-.04-.02-.09-.01c0 0-.06.03-.04.08l.05.1.13.08.13.06.15.05.13.07.27.1.22.08.15.07.17.04.18.05.05.05.01.09-.01.06-.07.06-.08.02s-.1.01-.15 0c-.06-.01-.13-.06-.16-.06s-.21-.11-.21-.11l-.25-.13-.19-.07-.18-.07-.22-.04s-.14 0-.18-.01c-.03-.01-.22.02-.21.02 0 0-.12 0-.18.05-.02.02.02.12.01.1 0 0 .09.04.13.04h.11l.09.01h.33l.2.04s.05.03.07.11l.03.15-.04.19-.06.09-.12.08-.18.12s-.1.05-.12.05c-.02 0-.17.06-.17.06l-.15-.01s-.4-.02-.48-.15l-.1-.02.03.35.08.25.21.01.31-.06.15-.06.15-.08.22-.07.14-.08.15-.06.22.01.11.04.02.09-.05.12-.11.13-.22.17-.24.14-.1.08-.12.07-.13.03-.18.03h-.21s-.18-.01-.19 0c0 0-.1.06-.09.09l-.02.18v.12l.13.1.15.07.27.04h.73l.19-.02.27-.04.19-.08.32-.15.16-.12.29-.34.25-.28.23-.32.28-.32.27-.36s.07-.08.11-.14c.02-.03.04-.15.04-.18l-.03-.19s-.08-.11-.22-.13h-.96c-.03 0-.25-.02-.3-.04l-.2-.04-.21-.09-.17-.07-.28-.1-.3-.1-.31-.09z" style="fill:#fff;fill-rule:evenodd;stroke:none"/><path d="M791.67 499.88c.16.21.19.78 2.14.92.45 0 .67-.57.35-.58-.14 0-.27.01-.27.01-.41-.01-.31-.24-.31-.24s.14-.36.78-.31c.05.01.3.01.36.03.89.23.22.89.22.89-.19.22-.72.36-.72.36l-.22.05-.37.04-.66-.09c-1.07-.22-1.5-.14-1.5-.14l.2-.94zM790.37 502.71l.47-.22s.92-.69 1.98-.53c.06.01 1.93.18 2.69-.64 0 .17.02.51-.02.59-.27.57-1.51.56-1.51.56-1.38-.34-2.37.13-2.37.13s-.78.59-.83.61c-.06.03-.61.21-.61.21l.2-.71z" style="fill:#fff;fill-rule:nonzero;stroke:none"/><path d="m796.28 501.84-.68 1.06c-.34.39-1.25.42-1.25.42l-.56.03s-.86-.08-.94-.08c-.91-.07-1.94.33-1.94.33l-.33.11s-.11.43-.11.49c0 .05.03.44.03.44.17-.62.78-.58.78-.58.19-.06.27.02.27.02l.99-.05 1.42.05s.59-.05.65-.05c1.12-.05 1.47-1.24 1.47-1.24l.2-.95z" style="fill:#fff;fill-rule:evenodd;stroke:none"/><path d="m796.3 505.37-.42.56-.36.3-.39.28-.39.22-.36.23-.48.25-.66.36-.59.33-.5.39-.4.25-.22.25-.03.51.05.62.17.47.11.42.09.45.06.41-.02.31-.04.39-.09.42.33.22.21-.36.09-.31.03-.36-.03-.36-.03-.47-.08-.39-.14-.45-.14-.33-.11-.38-.07-.42.07-.36.36-.28.47-.14.7-.3.61-.2.5-.19.45-.28.39-.28.39-.28.44-.39.42-.47-.08-.25-.31-.39z" style="fill:#fff;fill-rule:nonzero;stroke:none"/><path d="M797.01 507.03c-.32.61-1.34.67-1.34.67-.1.03-.16.14-.16.14s.02.07.11.08c.43.06 1.33-.34 1.33-.34l.09-.21-.03-.34z" style="fill:#fff;fill-rule:nonzero;stroke:none"/><path d="M797.01 507.03c-.32.61-1.34.67-1.34.67-.1.03-.16.14-.16.14s.02.07.11.08c.43.06 1.33-.34 1.33-.34l.09-.21-.03-.34z" style="fill:none;stroke:#fff;stroke-width:.102;stroke-linecap:butt;stroke-linejoin:miter;stroke-miterlimit:3.86400008;stroke-dasharray:none"/><path d="M792.6 512.37s.57-.53.66-.92c-.03-.11-.61-1.56-.61-1.56-.22-.85-.03-1.24.58-1.12l3.32-.2-.31.92c-.03-.02-.19-.19-.44-.17-3.32-.66-2.51.71-2.51.71.03-.23.48 1.25.48 1.25.14.38-.28.9-.28.9-.03.11-.88 1.06-.88 1.06l-.4-.23s.31-.49.39-.64" style="fill:#fff;fill-rule:nonzero;stroke:none;stroke-width:.102;stroke-linecap:butt;stroke-linejoin:miter;stroke-miterlimit:3.86400008;stroke-dasharray:none"/><path d="M794.17 509.79c.32.43.53.74.64.92.42.94-.7 1.39-.7 1.39-.15.1-.67.09-.67.09l-.58.33c.06-.08-.28.28-.28.28s1.43-.12 1.81-.26c1.12-.78 1.3-1.49.5-2.28l-.28-.54-.22-.69-.48.02.26.74zM794.57 504.12v.22l.14.7.09.5.02.19v.14l.14-.11.09-.22.05-.22v-.17l-.02-.17-.12-.3s-.14-.16-.05-.62c.01-.05.08-.2.08-.2l-.19-.03s-.11.05-.14.11c-.03.05-.09.12-.09.18" style="fill:#fff;fill-rule:nonzero;stroke:none;stroke-width:.102;stroke-linecap:butt;stroke-linejoin:miter;stroke-miterlimit:3.86400008;stroke-dasharray:none"/><path d="m793.9 503.8-.13.11-.14.21-.06.14v.14l.06.16.05.28.09.34.02.39-.05.27-.2.34-.22.19-.28.25-.41.23-.48.22-.26.14-.42.22-.53.39-.28.28-.19.3-.11.39-.03.42.08.34.14.34.14.31.11.25.03.56.03.19-.08.39-.06.25-.06.17s-.13.46-.05.54c.08.08.51.17.46.17-.3.04.57-.09.4-.21.05-.09.03-.36.03-.36v-.34l-.08-.36-.09-.3-.08-.37-.09-.27-.11-.31-.08-.28-.06-.23-.11-.42-.02-.39.11-.42.19-.33.25-.25.31-.14.46-.25.47-.2s.25-.11.33-.17c.09-.05.56-.25.56-.25l.22-.19.25-.31.2-.25.05-.33-.02-.59-.12-.52v-.48l.06-.29-.06-.17-.14.06z" style="fill:#fff;fill-rule:evenodd;stroke:none;stroke-width:.102;stroke-linecap:butt;stroke-linejoin:miter;stroke-miterlimit:3.86400008;stroke-dasharray:none"/><path d="M788.46 511.84v-.28l-.05-.69-.53-1.63c-.11-.58-.05-1.04.17-1.36l.47-.84.17-.31s.39-1.22-.14-1.53c-.81-.91-1.06.14-1.06.14l-.39.75-.25.84c-.05.21-.5.81-.5.81l-.23.27-.23.2-.3.36-.26.2-.16.11s-.17.08-.23.08c-.05 0-.22-.05-.22-.05s-.14-.14-.11-.2c.03-.05.11-.25.11-.25l.2-.11.39-.2.3-.25.37-.44.26-.39.3-.78.17-.59.25-.52.37-.61c.39-.48 1.16-.18 1.21-.18.06 0 .31.2.31.2s.26-.07.31.04c.06.11.11.74.11.74l.03.47-.03.34c.02.19-.19.75-.19.75l-.64 1.08c-.32.72 0 1.51 0 1.51l.41 1.07.14.42.17.72v.19c-.15.39-.56.2-.61.17-.06-.03-.09-.25-.09-.25" style="fill:#fff;fill-rule:nonzero;stroke:none;stroke-width:.102;stroke-linecap:butt;stroke-linejoin:miter;stroke-miterlimit:3.86400008;stroke-dasharray:none"/><path d="m789.19 504.74-.08-.28-.12-.22-.14-.17-.16-.18-.31-.25c-.81-.41-1.36-.11-1.36-.11.03-.03-.45.34-.45.34l-1.07 1.57-.41.64-.67.75c-.96.72-1.42-.17-1.42-.17l-.14-.22.53 1.23c.71-.1 1.55-.67 1.55-.67l1.69-2.57.44-.54c.66-.19.95.16.95.16s.12.1.22.22c.1.11.39.16.39.16s.17.14.22.17c.06.03.34.14.34.14" style="fill:#fff;fill-rule:evenodd;stroke:none;stroke-width:.102;stroke-linecap:butt;stroke-linejoin:miter;stroke-miterlimit:3.86400008;stroke-dasharray:none"/><path d="m786.97 512.42.01-.4c.17-.21.12-.35.12-.35.03 0-.17-.19-.17-.19l-.28-.31-.25-.44-.16-.42-.06-.39c-.02-.6.36-1.4.36-1.4l.5-.77c.36-.69.22-1.32.22-1.32l-.1-.5.27-.56.1-.18s.07.29.1.35c.03.05.08 1.15.08 1.15.04.39-.14.94-.14.94-.75 1.1-.89 1.61-.89 1.61-.17.6-.1.93.09 1.15l.39.53.22.28.25.22s.08.09.17.2l.16.22.06.17s-.03.22-.17.28c-.14.05-.28.16-.28.16l-.32.15-.28-.18z" style="fill:#fff;fill-rule:nonzero;stroke:none;stroke-width:.102;stroke-linecap:butt;stroke-linejoin:miter;stroke-miterlimit:3.86400008;stroke-dasharray:none"/><path d="M786.69 502.41c.02 0-.18.04-.18.04l-.35-.01c-.38.16-.67.02-.67.02l-.7-.54-.41-.34-.27-.29c-.22-.24-.39-.12-.39-.12l-.49.35.16.06.32.02.72.49.7.67.15.13c.02.77-.54.57-.54.57l-.13-.12-.14-.22s-.14-.09-.22-.03c-.1.07-.12.21-.12.21s.11.3.38.47c.32.12.57.11.57.11l-.02.19c-.18.44-.86.49-.86.49-1.02-.04-.97-.65-.97-.65l-.09-.28-.36 1.06.47-.02s.56.2.61.2c.04 0 .16.04.54.03.4-.03.97-.74.97-.74l.45-1.02c.04-.13.16-.2.16-.2l.45-.27s.24-.26.26-.26" style="fill:#fff;fill-rule:evenodd;stroke:none;stroke-width:.102;stroke-linecap:butt;stroke-linejoin:miter;stroke-miterlimit:3.86400008;stroke-dasharray:none"/><path d="M789.31 503.21c.71 1.67 1.02 1.62.75 3.67.04.08-1.1 1.52-1.1 1.52-.1.14-.09.63-.09.63.09.6.49 1.17.49 1.17.14.12.28.59.28.59l.11.83v.18l.51.19s-.12-1.92-.33-2.08c-.45-.81-.49-1.44-.14-1.88l.48-.63c.07-.06.27-.07.27-.07l.76-.6.91-.82.58-.65c.4-.68.26-1.3.26-1.3-.1-.03-.29.03-.29.03l-.01.57c-.02.36-.39.72-.39.72l-.72.75-.88.67-.13.05-.02-.2.09-.16.22-.27 1.17-1.63.3-.52-.79.04-.05.3c-.06.66-.88 1.45-.88 1.45l-.06-.39-.09-1.01.11-.52s.03-.75.01-.71c-.02.05-1.33.08-1.33.08" style="fill:#fff;fill-rule:nonzero;stroke:none;stroke-width:.102;stroke-linecap:butt;stroke-linejoin:miter;stroke-miterlimit:3.86400008;stroke-dasharray:none"/><path d="m787.02 512.01.27-.24c3.81-.25 4.7.77 4.7.77.32.2.72.81.72.81l.42.17-.04.54-.45-.18-.41-.07-.27.04-.09-.47c-.15-.61-3.34-1.17-3.34-1.17l-.5.02h-.42l-.32-.09-.27-.13z" style="fill:#fff;fill-rule:nonzero;stroke:none;stroke-width:.102;stroke-linecap:butt;stroke-linejoin:miter;stroke-miterlimit:3.86400008;stroke-dasharray:none"/><path d="M787.42 512.34s.03.27.05.32c.02.04.14.18.14.18 1.74-.01 4.24.88 4.24.88.36.04.36.13.36.13.32.49.07.57.07.57l-.55-.18c-1.84-1-4.58-1.09-4.58-1.09l-.11-.24.02-.32.36-.25zM787.13 513.29c-.05.2.2.2.2.2 1.29.02 3.52.81 3.57.83.04.03.77.32.77.32.27.22.57.12.57.12l-.03.51-.14.36s-.11.19-.11.15c0-.05-.5-.67-.5-.67-.61-.65-2.91-1.08-2.91-1.08l-.45-.07h-.68c-.35 0-.36.53-.36.53l-.33-.35.13-.56.27-.29z" style="fill:#fff;fill-rule:nonzero;stroke:none;stroke-width:.102;stroke-linecap:butt;stroke-linejoin:miter;stroke-miterlimit:3.86400008;stroke-dasharray:none"/><path d="M792.1 515.61c-.04.39-.72.17-.72.17-1.19-.86-3.19-1.24-3.19-1.24-1.04.09-1.19-.28-1.19-.28-.4.04-.5.27-.5.27s-.11.86-.11.9c0 .05-.11.21-.11.21l.27-.09.49-.53c1.66-.08 2.32.84 2.32.84.9.34 1.2.44 1.45.75.11.14.22.11.27.13.05.02.88.04.88.04l.14-1.17z" style="fill:#fff;fill-rule:evenodd;stroke:none;stroke-width:.102;stroke-linecap:butt;stroke-linejoin:miter;stroke-miterlimit:3.86400008;stroke-dasharray:none"/><path d="M779.76 517.78s.52.39.56.45c.04.05.18.2.23.25.04.04.27.2.27.2.12-.02.6 0 .6 0 .01-.01.09-.14.2-.22.11-.08.28-.27.28-.27l.29-.21s.3-.2.34-.2c.05 0 .38-.11.38-.11l.3-.12.29-.18.41-.13.31-.16.18-.14.18-.13.48-.38.28-.18.27-.18c.17-.36.94-.52.94-.52l-.21.33-.11.32-.02.38s-.05.25-.05.3c0 .04-.06.2-.06.2l-.34.22-.29.18-.57.12-.25.13-.42.23s-.37.14-.41.14h-.32l-.31.11c-.78.39-1.29.97-1.29.97l-.27.27-.23.07-.27.02-.38-.02s-.16-.01-.95-.54c-.25-.23-.58-.07-.58-.07 0 .05.11-.45.11-.45l.25-.45.18-.23z" style="fill:#fff;fill-rule:evenodd;stroke:none;stroke-width:.102;stroke-linecap:butt;stroke-linejoin:miter;stroke-miterlimit:3.86400008;stroke-dasharray:none"/><path d="M789.41 515.82c-.01.15-.36.26-.36.26l-.78-.03-.63.06-.34.12-.25.11-.2.14-.2.13-.45.38-.27.07-.3.16-.23.28.39-.03s.45-.03.5-.03c.04 0 .43-.02.43-.02s.33-.09.38-.09c.05 0 .32-.09.32-.09l.38-.2.54-.25c.58-.34.99.07.99.07l.27-.05c.2-.69 1.02-.51 1.02-.51-.08-.11-1.21-.48-1.21-.48M783.7 530.37l-.22.09-.27.15-.18.14-.25.04-.25.05-.27.16-.38.25-.2.29-.21.34-.32.52-.18.47-.06.25v.16l.09.04a.98.98 0 0 0 .31-.11c.24-.1.54-.39.54-.39l.28-.22.22-.11.5-.19.29-.08.74-.19c.44-.11.82-.31.82-.31.73-.51.83-1.08.83-1.08l.11-.52.05-.5-.02-.38-.05-.54.05-.3.11-.34.07-.22c.01-.16.01-.26 0-.29-.09-.01-.25.09-.25.09-.09.07-.21.27-.21.27l-.13.22-.07.34-.02.52-.04.43v.61c.07.59-.39 1.22-.39 1.22l-.29.24-.39.18-.29.12-.61.13-.56.09-.54.25-.25.18c-.3.04-.18-.25-.18-.25l.11-.27.18-.25c.43-.28.63-.29.63-.29s.73-.02.79-.04c.07-.03.25-.09.25-.09l.23-.12.2-.15.18-.25.02-.21c-.13-.28-.52-.15-.52-.15" style="fill:#fff;fill-rule:nonzero;stroke:none;stroke-width:.102;stroke-linecap:butt;stroke-linejoin:miter;stroke-miterlimit:3.86400008;stroke-dasharray:none"/><path d="m783.7 530.37-.22.09-.27.15-.18.14-.25.04-.25.05-.27.16-.38.25-.2.29-.21.34-.32.52-.18.47-.06.25v.16l.09.04a.98.98 0 0 0 .31-.11c.24-.1.54-.39.54-.39l.28-.22.22-.11.5-.19.29-.08.74-.19c.44-.11.82-.31.82-.31.73-.51.83-1.08.83-1.08l.11-.52.05-.5-.02-.38-.05-.54.05-.3.11-.34.07-.22c.01-.16.01-.26 0-.29-.09-.01-.25.09-.25.09-.09.07-.21.27-.21.27l-.13.22-.07.34-.02.52-.04.43v.61c.07.59-.39 1.22-.39 1.22l-.29.24-.39.18-.29.12-.61.13-.56.09-.54.25-.25.18c-.3.04-.18-.25-.18-.25l.11-.27.18-.25c.43-.28.63-.29.63-.29s.73-.02.79-.04c.07-.03.25-.09.25-.09l.23-.12.2-.15.18-.25.02-.21c-.13-.28-.52-.15-.52-.15z" style="fill:none;stroke:#fff;stroke-width:.102;stroke-linecap:butt;stroke-linejoin:miter;stroke-miterlimit:3.86400008;stroke-dasharray:none"/><path d="M786.88 520.05c-.12-.17.04-.29.27-.34-.01-.03.43-.11.43-.11.11-.01.22.13.2.2-.02.07-.14.14-.14.14-.33.29-.76.11-.76.11" style="fill:#fff;fill-rule:nonzero;stroke:none;stroke-width:.102;stroke-linecap:butt;stroke-linejoin:miter;stroke-miterlimit:3.86400008;stroke-dasharray:none"/><path d="M786.88 520.05c-.12-.17.04-.29.27-.34-.01-.03.43-.11.43-.11.11-.01.22.13.2.2-.02.07-.14.14-.14.14-.33.29-.76.11-.76.11z" style="fill:none;stroke:#fff;stroke-width:.102;stroke-linecap:butt;stroke-linejoin:miter;stroke-miterlimit:3.86400008;stroke-dasharray:none"/><path d="M776.62 525.43c-.08-.02-.2.09-.2.09-.14.2-.05.42-.05.42.02.04.1.12.14.14.04.02.16.07.2.07a.9.9 0 0 0 .57-.07c.04-.01.22-.11.22-.11l.23-.18c.12-.13.18-.22.18-.27 0 0 .03-.64-.05-.7-.24-.32-.5-.52-.79-.59l-1.04-.25-.29-.11-.16-.2-.19-.46s-.18 1.04-.22 1.06c-.05.03-.13.64-.13.64l.7-.57c1.07 0 1.62.54 1.62.54l.07.3c0 .16-.01.25-.02.27 0 0-.14.23-.52.11-.1-.08-.27-.13-.27-.13" style="fill:#fff;fill-rule:nonzero;stroke:none;stroke-width:.102;stroke-linecap:butt;stroke-linejoin:miter;stroke-miterlimit:3.86400008;stroke-dasharray:none"/><path d="M776.62 525.43c-.08-.02-.2.09-.2.09-.14.2-.05.42-.05.42.02.04.1.12.14.14.04.02.16.07.2.07a.9.9 0 0 0 .57-.07c.04-.01.22-.11.22-.11l.23-.18c.12-.13.18-.22.18-.27 0 0 .03-.64-.05-.7-.24-.32-.5-.52-.79-.59l-1.04-.25-.29-.11-.16-.2-.19-.46s-.18 1.04-.22 1.06c-.05.03-.13.64-.13.64l.7-.57c1.07 0 1.62.54 1.62.54l.07.3c0 .16-.01.25-.02.27 0 0-.14.23-.52.11-.1-.08-.27-.13-.27-.13z" style="fill:none;stroke:#fff;stroke-width:.102;stroke-linecap:butt;stroke-linejoin:miter;stroke-miterlimit:3.86400008;stroke-dasharray:none"/><path d="M771.69 537.63c.17.14.99.51.99.51-.01.02 1.02.33 1.02.33s.55.16.69.18c2.04.32 3.6.44 4.69.39 2.11 0 3.9-.5 3.9-.5 1.05-.22 3.22-1.06 3.22-1.06.42-.16 1.85-.91 2.59-2.08.06-.09 1.57-2.52 1.57-2.52.46-.95 1.03-3.07 1.03-3.07l.29-1.21.37-1.35c.55-2.06.66-3.22.66-3.22l.11-.94.18-1.71.07-.89.18-1.43c.04-.16-.44-1.68-.44-1.68l-.54-.73-.52-.14v.29l.59.76c.06.02.4.74.4.81 0 .07-.11 2.96-.11 2.96l-.07 1.57-.1.99c.03.11-.16 1.28-.16 1.28.01.07-.25.76-.25.76l-.26.92-.26.88-.27 1.07-.16.98c-.02.35-.59 2-.59 2-.74 1.7-2.19 3.51-2.19 3.51l-.91.84c-5.01 3.05-10.81 2.41-11.01 2.41 0 0-1.14-.14-2.26-.33-1.05-.25-1.65-.54-1.65-.54-.27-.17-.69-.22-.69-.22-.2.01-.11.18-.11.18" style="fill:#fff;fill-rule:nonzero;stroke:none;stroke-width:.102;stroke-linecap:butt;stroke-linejoin:miter;stroke-miterlimit:3.86400008;stroke-dasharray:none"/><path d="M780.55 536.82c.1-.04.29-.15.58-.32 1.18-.76 2.14-1.22 3.07-1.52.07-.03 1.83-.77 2.27-1.77.41-.6.58-1.17.58-1.17-.01.1.26-.84.26-.84l.32-1.72.22-.62c.25-.73.77-1.17.77-1.17l1.39-1.21s.8-.88.75-1.63c.05-.16-.13-.23-.2.02-.09.3-.11.36-.21.53-.17.32-.85.93-.85.93l-.8.59-.81.62-.55.48c-.33.61-.25 1.13-.25 1.13l.03.8c.1.41-.32 1.76-.32 1.76l-.16.37-.14.32-.25.55c-.04.03-.18.15-.52.48-.8.93-2.26 1.35-2.26 1.35-.64.13-1.1.27-1.57.51-1.46.88-1.35 1.53-1.35 1.53" style="fill:#fff;fill-rule:nonzero;stroke:none;stroke-width:.102;stroke-linecap:butt;stroke-linejoin:miter;stroke-miterlimit:3.86400008;stroke-dasharray:none"/><path d="M780.55 536.82c.1-.04.29-.15.58-.32 1.18-.76 2.14-1.22 3.07-1.52.07-.03 1.83-.77 2.27-1.77.41-.6.58-1.17.58-1.17-.01.1.26-.84.26-.84l.32-1.72.22-.62c.25-.73.77-1.17.77-1.17l1.39-1.21s.8-.88.75-1.63c.05-.16-.13-.23-.2.02-.09.3-.11.36-.21.53-.17.32-.85.93-.85.93l-.8.59-.81.62-.55.48c-.33.61-.25 1.13-.25 1.13l.03.8c.1.41-.32 1.76-.32 1.76l-.16.37-.14.32-.25.55c-.04.03-.18.15-.52.48-.8.93-2.26 1.35-2.26 1.35-.64.13-1.1.27-1.57.51-1.46.88-1.35 1.53-1.35 1.53z" style="fill:none;stroke:#fff;stroke-width:.102;stroke-linecap:butt;stroke-linejoin:miter;stroke-miterlimit:3.86400008;stroke-dasharray:none"/><path d="M772.01 536.13c.37.21 1.65.51 1.65.51.09.05 1.25.22 1.32.22.07 0 2.15.29 2.15.29.91.07 1.61-.22 1.61-.22.26-.07.48-.25.48-.25l1.17-.92 1.17-.8s.69-.36.8-.4c.11-.04 1.57-.55 1.72-.58.15-.04 1.24-.55 1.24-.55s1.55-.89 1.42-1.5c-.65.69-1.82 1.17-1.82 1.17-3.18 1.06-3.65 1.57-3.65 1.57l-.88.58-.77.51c-1.01.81-2.41.87-2.41.87-1.4.12-3.79-.34-3.79-.34-.96-.26-1.41-.16-1.41-.16" style="fill:#fff;fill-rule:nonzero;stroke:none;stroke-width:.102;stroke-linecap:butt;stroke-linejoin:miter;stroke-miterlimit:3.86400008;stroke-dasharray:none"/><path d="M782.51 537.43c-.08 0 .5-.05.98-.17.15-.03.87-.3.95-.33.07-.02 1.3-.55 1.46-.65.75-.43 1.25-.78 1.54-1.03.84-.71 1.04-1.18 1.04-1.18.58-.78 1.03-1.53 1.34-2.62l.25-.87.15-.77.22-1.28.18-.77-.73 1.03-.27.34-.21.35-.21.66c-.74 3.24-1.32 3.95-1.32 3.95-.74 1.11-1.87 1.75-1.87 1.75-.23.16-1.64.8-1.64.8s-1.17.44-1.31.48c-.85.22-.55.31-.55.31" style="fill:#fff;fill-rule:evenodd;stroke:none;stroke-width:.102;stroke-linecap:butt;stroke-linejoin:miter;stroke-miterlimit:3.86400008;stroke-dasharray:none"/><path d="M775.09 533.35c.73-.41 1.21-.47 1.21-.47.58 0 1.24-.15 1.24-.15s.44-.22.51-.44.07-.33.07-.33l.04-.69s.14-.8.25-.84c.11-.04.11-.24 1.65-.62.07-.02.79-.32.88-.44.21-.16.34-.31.4-.44.54-.89.18-2.81.18-2.81l.08-.4c.69-.6 1.05-.52 1.05-.52v.22c0 .08-.18.44-.18.44l-.69 3.11c-.3.58-1.61 1.13-1.61 1.13-.77.19-.81.77-.81.77l-.18.76-.22.81c-.2 1.02-1.09.99-1.09.99h-.95l-.48.03-.4.08-.62.25s-.69.16-.33-.44" style="fill:#fff;fill-rule:nonzero;stroke:none;stroke-width:.102;stroke-linecap:butt;stroke-linejoin:miter;stroke-miterlimit:3.86400008;stroke-dasharray:none"/><path d="m775.2 531.84.44-.09.33-.11c.3-.02.36.07.36.07l.66.22h.22l.44-.07c.85-.21.91-.73.91-.73l-.51.14-.48.04-.73.03-.51-.03c-.72-.24-1.13.53-1.13.53" style="fill:#fff;fill-rule:nonzero;stroke:none;stroke-width:.102;stroke-linecap:butt;stroke-linejoin:miter;stroke-miterlimit:3.86400008;stroke-dasharray:none"/><path d="M774.94 534.81c.64-.85 1.32-.35 1.28-.4l1.06.22c.29.02.56.04.64.03.48-.04.68-.12.8-.15.32-.1.59-.14 1.01-.79-.01.06.37-.7.37-.7l.29-.76c.46-1.74 2.19-2.38 2.19-2.38l1.03-.29.32-.15s.4-.3.48-.51c.03-.1.25-.51.25-.51l.22-.66.33-.91.29-.26.37-.29.33-.44c-.12-.1-.07-.36-.07-.36 0-.05-.33-.12-.33-.12l-.36-.09c-.16.07-.26.35-.26.35l-.11.55-.48 1.57c-.36.93-1.02 1.1-1.02 1.1l-.92.44-1.24.69c-.9.43-1.39 2.01-1.39 2.01-.38 1.59-1.09 1.94-1.09 1.94-.38.39-2.26.17-2.26.17l-.73-.24c.08.03-1.14-.41-1.14-.41s.03.59.03.66c0 .07.11.69.11.69" style="fill:#fff;fill-rule:evenodd;stroke:none;stroke-width:.102;stroke-linecap:butt;stroke-linejoin:miter;stroke-miterlimit:3.86400008;stroke-dasharray:none"/><path d="M782.69 528.24c.71-.87.4-2.49.4-2.49l.15-.77.47-.69s.84-.95.88-1.02c.97-1.11.74-2.16.36-3l-.36-.44-.07-.15-.04-.95.15-.25c.24-.15 1.09-.18 1.09-.18s1.1 0 1.17-.04c.08-.04.52.07.41.14-.11.08-.3.15-.3.15s-.51.4-.54.51c-.04.11-.11.73-.11.81 0 .07-.11.33-.11.33-.03.06-.21.33-.34-.04.03.07-.07-.4-.07-.4l-.11-.44-.4-.18a.31.31 0 0 0-.18.03c-.08.06-.04.33-.04.33.05.13.29.48.29.48l.15.47.18.66.08.77-.19.66-.22.43-.87 1.17-.4.55-.41.55-.18.66-.04 1.6c.02.48-.47 1.03-.47 1.03-.56.22-.33-.29-.33-.29M771.44 536.84l1.09.48 1.35.31c3.25.49 5.56.29 5.56.29 1.91-.33 3.14-.95 3.14-.95s3.23-1.36 4.46-2.81c.37-.5.51-.95.51-.95l.91-2.82c.29-.87.59-1.24.59-1.24.21-.28.47-.4.47-.4l.33-.15c.32-.12.59-.51.59-.51.37-.52.36-.99.36-.99.08-.05 0-.51 0-.51l-.33.4-.64.65c-1.44.8-1.84 2.9-1.84 2.9l-.26 1.09-.36 1.1c-.4 2.05-5.77 4.2-5.77 4.2-2.27 1.09-5.12.73-5.12.73-.35 0-1.24-.14-1.24-.14l-2.35-.4-.9-.2-.55-.08z" style="fill:#fff;fill-rule:evenodd;stroke:none;stroke-width:.102;stroke-linecap:butt;stroke-linejoin:miter;stroke-miterlimit:3.86400008;stroke-dasharray:none"/><path d="M790.36 515.99c.14.01.23.16.26.44l.11.51.07.66.04.55.07.58v.48c-.38.94-1.68 1.5-1.68 1.5l-.69.22-.51.29-.4.37-.41.25-.51.15c-.3.02-.11.18-.11.18s.19.07.33.07c.15 0 .55-.03.66-.07.11-.04.47-.11.47-.11s.33-.33.55-.44c.88-.43 2.81-1.86 2.81-1.86.24-.15.22-.62.22-.62v-.48l-.03-.51-.11-.37-.19-.8-.07-.51s-.11-.18-.14-.26a2.21 2.21 0 0 0-.22-.25l-.3-.08-.22.11z" style="fill:#fff;fill-rule:nonzero;stroke:none;stroke-width:.102;stroke-linecap:butt;stroke-linejoin:miter;stroke-miterlimit:3.86400008;stroke-dasharray:none"/><path d="m791.61 519.94-.48.8s-.5.99-1.46 1.45c-.56.16-.68.4-.68.4-.01.02-.01.64-.01.64.11.96-.73 1.79-.73 1.79s-1.03.55-1.1.58c-.07.04-1.04.33-1.14.37-.06.03-.73.55-.73.55l-.14.4.29-.18.95-.48 2.19-1.08c.5-.27.77-.6.77-.6.1-.2.29-1.09.29-1.09.04-.34.37-.55.37-.55.16-.15 1.5-1.39 1.5-1.39.24-.34.11-1.61.11-1.61" style="fill:#fff;fill-rule:evenodd;stroke:none;stroke-width:.102;stroke-linecap:butt;stroke-linejoin:miter;stroke-miterlimit:3.86400008;stroke-dasharray:none"/><path d="m791.61 519.94-.48.8s-.5.99-1.46 1.45c-.56.16-.68.4-.68.4-.01.02-.01.64-.01.64.11.96-.73 1.79-.73 1.79s-1.03.55-1.1.58c-.07.04-1.04.33-1.14.37-.06.03-.73.55-.73.55l-.14.4.29-.18.95-.48 2.19-1.08c.5-.27.77-.6.77-.6.1-.2.29-1.09.29-1.09.04-.34.37-.55.37-.55.16-.15 1.5-1.39 1.5-1.39.24-.34.11-1.61.11-1.61z" style="fill:none;stroke:#fff;stroke-width:.102;stroke-linecap:butt;stroke-linejoin:miter;stroke-miterlimit:3.86400008;stroke-dasharray:none"/><path d="M775.49 534.28c-.16.26-.11.57-.11.57.36.63 3.22.3 3.51.15l1.28-.7 1.35-.73c2.34-1.2 3.96-1.57 3.96-1.57.79-.47.68-2.41.68-2.41l.04-1.06.04-.62.07-.48c.04-.32.33-.51.33-.51l2.88-1.68s.79-.5.88-1.79c0-.49-.22-.73-.22-.73.02-.11 0-.33 0-.33s.04-.07.29-.22c.26-.15.52-.29.52-.29l-.04.33-.15.51-.03 1.17.06.87c.02.22-.11.34-.36.48l-.36.18-1.46.73-.51.29-.73.44-.48.52-.29.54-.18.66-.08.62v.52l-.03.67-.04.68c.13 1.05-2.12 1.64-2.12 1.64l-1.61.55-.66.29-1.13.81c-.01.05-1.13.76-1.13.76-1.5.81-3.15.71-3.15.71l-.71-.06c-.58-.09-.89-.39-.89-.39l-.04-.29s.06-.28.09-.35c.04-.1.17-.27.17-.27l.36-.21zM775.39 530.95c.07-.05 1.96-1.57 1.96-1.57.72-.66 1.82-.86 1.82-.86.23-.05.89-.02.89-.02.66-.17.62-1 .62-1 .2-1.22-.37-1.24-.37-1.24-.16-.1-.29-.14-.29-.14s-.29-.19-.03-.22c.25-.04 1.2.07 1.2.07l-.33 2.3c-.25.91-1.51.81-1.51.81-.28-.06-.66-.02-.66-.02-.85.22-1.38.74-1.38.74l-1.82 1.36c-.52.19-.1-.21-.1-.21M789.84 516.43l.09.59.21.77c.02.1-.07.3-.07.3 0 .03-.51.66-.51.66-.06.12-.02.55-.02.55.01.22-.12.68-.38 1.37-.31.51-.84.66-.84.66s-.29.11-.29.07c-.06-.02-.07-.08-.01-.17.75-.75.88-1.62.88-1.62.04-.13.03-.1.07-.18.03-.07.12-.33.12-.33l.14-.37.4-.8c.17-.21-.22-.73-.22-.73l.04-.51.39-.26z" style="fill:#fff;fill-rule:nonzero;stroke:none;stroke-width:.102;stroke-linecap:butt;stroke-linejoin:miter;stroke-miterlimit:3.86400008;stroke-dasharray:none"/><path d="m789.78 516.25-.04.55s-.06.51-.14.58c-1.28 1.17-2.78 1.13-2.78 1.13l-.26-.07.13-.18c3-.66 2.65-1.43 2.65-1.43.14-.16.07-.25.07-.25l.19-.22.18-.11zM785.58 518.62s.97.12 1.05.14c1.48.42 2.38.12 2.38.12.18-.01.35-.26.35-.26l.1.11-.01.22c-.02.35-.68.43-.68.43l-1.61-.09-.7-.12-1.1-.29.22-.26zM783.99 527.92l.02-.45s-.08-1.39-.08-1.24c-.01.02.03-.78.33-1.03.18-.11.56-.44.56-.44.22-.16.6-.83.6-.83s.33-1.09.27-1.17l-.11-.59.16-.33s.61.11.68.11c.07 0 .29.07.29.07l.04.19s-.19.11-.26.07a.947.947 0 0 0-.18-.07l-.11.47c0 .21-.42 1.01-.42 1.01l-.09.27-.22.69-.44.63c-.32.12-.55.58-.55.58-.13.22-.18 1.65-.18 1.65-.03.14-.31.41-.31.41" style="fill:#fff;fill-rule:nonzero;stroke:none;stroke-width:.102;stroke-linecap:butt;stroke-linejoin:miter;stroke-miterlimit:3.86400008;stroke-dasharray:none"/><path d="M788.25 521.55c.12-.09-.15.44-.15.44l.15 1.2c-.1 1.32-1.43 2.16-1.43 2.16l-.7.22-.4-.04c-.42-.35-.91-.18-.91-.18s-.99-.22-1.17-.15c-.18.08-.36.3-.36.3s-.11.32-.15.21c-.08-.21-.66 0-.66 0l-1.06.44-.11-.03-.8-.11-.04-.15.18-.07s1.76-.56 2.02-1.56c.02-.12.43-.12.5-.12.08 0 .88.29.88.29s.29.74.91.36c.1-.05.92.04.92.04l.73-.11c.87-.24 1.03-1.75 1.03-1.75.07-.16-.19-.51-.19-.51s.42-.78.48-.84c.21-.26.33-.04.33-.04M775.12 527.21l.26.18.22.22s.25.29.36.29h.37s.65-.12.76-.15c.11-.04.66-.25.66-.25l.73-.15.29-.03.48-.26.25-.33.11-.22.04-.29.22-.18.48-.11-.22.66-.37.84-.26.22-.29.14c-1.73.31-1.83.66-1.83.66l-.18.18-.73.66-.97 1c-.06.09-.53.37-.53.37-.17-.04-.07-.2-.07-.2l.84-.69s.59-.88.73-.99c.15-.11.22-.33.22-.33-.11-.2-.33 0-.33 0l-.22.29-1.21 1.16c-.44.25-.14-.21-.14-.21.05-.08.81-.98.81-.98l.07-.41-.18-.14-.26.11-.15-.07-.22-.44.26-.55z" style="fill:#fff;fill-rule:nonzero;stroke:none;stroke-width:.102;stroke-linecap:butt;stroke-linejoin:miter;stroke-miterlimit:3.86400008;stroke-dasharray:none"/><path d="m784.15 518.04-.11.29-.03.33c.05.28.47.11.47.11s.22.04.29.04c.08 0 .06.94.06.94l-.53.01-.48-.04s-.26.33-.11.33c.99-.01 1.03 1.39 1.03 1.39-.05.33-.26.15-.26.15-.23-1.13-1.06-1.29-1.06-1.29l-.44-.03-.29.07-.15.15c1.07.57 1.25 1.1 1.25 1.1.14.12.11.84.11.84l-.08.36c-.13.13-.25-.03-.25-.03v-.3c0-.12-.01-.26-.04-.4-.73-1.5-1.39-.99-1.39-.99l-.14.15c1.23.16 1.02 2.63 1.02 2.63l-.04.33-.14.15-.17-.02c.13-.33.17-1.12.17-1.12.04.02-.34-1.6-1.35-1.39-.08.02-.41.08-.37.15.04.07 0 .22.11.26.11.03.33.14.4.18.07.04.4.37.4.37l.15.32.04.44-.04.19c-.04.04-.15 0-.15 0l-.07-.15c-.11-1.03-.99-1.13-.99-1.13l-.4-.19h-.22l-.11.08c.89.63.95 1.31.95 1.31l.04.4c0 .19-.01.27-.04.26-.01.03-.14 0-.14 0 0 .03-.11-.15-.11-.15l-.19-.58c-.24-.67-.87-.95-.87-.95-.35-.02-.19.25-.19.25.81.82.74 1.1.74 1.1l-.04.62c-.09.09-.19 0-.19 0l-.11-.33c-.1-.67-.65-1.2-.8-1.2-.15 0-.26-.08-.26-.08l-.07.19.26.14.22.26.18.33c.03.21.04.36.04.44.04.17.07.27.07.29-.07.06-.18.03-.18.03-.03.02-.08-.18-.08-.18-.13-.39-.29-.66-.47-.8 0 0-.29.03-.18.11.26.21.25.87.25.87l-.04.92.11.22.59.14.84-.07.22.18-.36.29-.77.11-.37-.14-.29-.04-.4.04-.15.07-.8.51c-.18.03-.29.03-.33 0 0 0-.17-.16.07-.25.1-.05 1.97-.75 1.06-2.71-.02-.08-.22-.21-.22-.21-.07-.06-.58-.08-.58-.08-.06 0-.4.15-.4.15l-.33.33v.32l-.95-.14-.08-.22.04-.15s.29-.28.33-.29c.11-.05.25-.4.25-.4.01 0 0-.66 0-.66l-.06-2.04c.01-.19.35-.83.35-.83l.31.04c-.19.37-.33.89-.3 1.22l.14 1.1s.15.44.15.51.08.62.08.62.03.11.14.11c.11 0 .18-.03.18-.03.05-.03.07-.11.07-.11.01-.01-.03-.81-.03-.81-.48-1.72-.22-2.6-.22-2.6.02.01.48.06.48.06-.28.47-.3.97-.3.97l.11.55.15.55.11.84.07.14h.15l.03-.36v-.91l-.11-.69c-.03-.61.12-1.07.12-1.07l.31.03-.1.41-.04.55s.04.43.04.51c0 .07.18.73.18.73l.15.22c.3.1.33-.26.33-.26l-.29-1.5s-.07-.69-.04-.76c.04-.1.29-.51.29-.51.06-.09.15.07.15.07-.01-.07.11 1.64.11 1.64s.13.22.37.1c.4-.02.5.42.5.42s.54.51.55-.48c.01-.18-.29-.56-.29-.56-.29-.33.23-.17.23-.17l.39.14s.3.08.37.08.15 0 .29-.08c.15-.07.22-.21.22-.21l-.25-.52s-.07-.43 0-.54c.13-.27.4 0 .4 0s-.08.29-.04.36.11.26.11.26c.1.17.51.14.51.14.74-.33.88-1.53.88-1.53.07-.17-.18-.22-.18-.22l.14-.29 1.13-.41-.4.59z" style="fill:#fff;fill-rule:evenodd;stroke:none;stroke-width:.102;stroke-linecap:butt;stroke-linejoin:miter;stroke-miterlimit:3.86400008;stroke-dasharray:none"/><path d="m784.15 518.04-.11.29-.03.33c.05.28.47.11.47.11s.22.04.29.04c.08 0 .06.94.06.94l-.53.01-.48-.04s-.26.33-.11.33c.99-.01 1.03 1.39 1.03 1.39-.05.33-.26.15-.26.15-.23-1.13-1.06-1.29-1.06-1.29l-.44-.03-.29.07-.15.15c1.07.57 1.25 1.1 1.25 1.1.14.12.11.84.11.84l-.08.36c-.13.13-.25-.03-.25-.03v-.3c0-.12-.01-.26-.04-.4-.73-1.5-1.39-.99-1.39-.99l-.14.15c1.23.16 1.02 2.63 1.02 2.63l-.04.33-.14.15-.17-.02c.13-.33.17-1.12.17-1.12.04.02-.34-1.6-1.35-1.39-.08.02-.41.08-.37.15.04.07 0 .22.11.26.11.03.33.14.4.18.07.04.4.37.4.37l.15.32.04.44-.04.19c-.04.04-.15 0-.15 0l-.07-.15c-.11-1.03-.99-1.13-.99-1.13l-.4-.19h-.22l-.11.08c.89.63.95 1.31.95 1.31l.04.4c0 .19-.01.27-.04.26-.01.03-.14 0-.14 0 0 .03-.11-.15-.11-.15l-.19-.58c-.24-.67-.87-.95-.87-.95-.35-.02-.19.25-.19.25.81.82.74 1.1.74 1.1l-.04.62c-.09.09-.19 0-.19 0l-.11-.33c-.1-.67-.65-1.2-.8-1.2-.15 0-.26-.08-.26-.08l-.07.19.26.14.22.26.18.33c.03.21.04.36.04.44.04.17.07.27.07.29-.07.06-.18.03-.18.03-.03.02-.08-.18-.08-.18-.13-.39-.29-.66-.47-.8 0 0-.29.03-.18.11.26.21.25.87.25.87l-.04.92.11.22.59.14.84-.07.22.18-.36.29-.77.11-.37-.14-.29-.04-.4.04-.15.07-.8.51c-.18.03-.29.03-.33 0 0 0-.17-.16.07-.25.1-.05 1.97-.75 1.06-2.71-.02-.08-.22-.21-.22-.21-.07-.06-.58-.08-.58-.08-.06 0-.4.15-.4.15l-.33.33v.32l-.95-.14-.08-.22.04-.15s.29-.28.33-.29c.11-.05.25-.4.25-.4.01 0 0-.66 0-.66l-.06-2.04c.01-.19.35-.83.35-.83l.31.04c-.19.37-.33.89-.3 1.22l.14 1.1s.15.44.15.51.08.62.08.62.03.11.14.11c.11 0 .18-.03.18-.03.05-.03.07-.11.07-.11.01-.01-.03-.81-.03-.81-.48-1.72-.22-2.6-.22-2.6.02.01.48.06.48.06-.28.47-.3.97-.3.97l.11.55.15.55.11.84.07.14h.15l.03-.36v-.91l-.11-.69c-.03-.61.12-1.07.12-1.07l.31.03-.1.41-.04.55s.04.43.04.51c0 .07.18.73.18.73l.15.22c.3.1.33-.26.33-.26l-.29-1.5s-.07-.69-.04-.76c.04-.1.29-.51.29-.51.06-.09.15.07.15.07-.01-.07.11 1.64.11 1.64s.13.22.37.1c.4-.02.5.42.5.42s.54.51.55-.48c.01-.18-.29-.56-.29-.56-.29-.33.23-.17.23-.17l.39.14s.3.08.37.08.15 0 .29-.08c.15-.07.22-.21.22-.21l-.25-.52s-.07-.43 0-.54c.13-.27.4 0 .4 0s-.08.29-.04.36.11.26.11.26c.1.17.51.14.51.14.74-.33.88-1.53.88-1.53.07-.17-.18-.22-.18-.22l.14-.29 1.13-.41-.4.59z" style="fill:none;stroke:#fff;stroke-width:.102;stroke-linecap:butt;stroke-linejoin:miter;stroke-miterlimit:3.86400008;stroke-dasharray:none"/><path d="m790.7 527.44.32-.56.48-1.53.29-3.84.07-1.53v-1.25c-.14-.64-.36-.84-.36-.84-.02.01-.15.73-.15.73v1.65l-.07 1.9c.01 3.37-.57 4.6-.57 4.6l-.01.67z" style="fill:#fff;fill-rule:nonzero;stroke:none;stroke-width:.102;stroke-linecap:butt;stroke-linejoin:miter;stroke-miterlimit:3.86400008;stroke-dasharray:none"/><path d="m790.7 527.44.32-.56.48-1.53.29-3.84.07-1.53v-1.25c-.14-.64-.36-.84-.36-.84-.02.01-.15.73-.15.73v1.65l-.07 1.9c.01 3.37-.57 4.6-.57 4.6l-.01.67z" style="fill:none;stroke:#fff;stroke-width:.102;stroke-linecap:butt;stroke-linejoin:miter;stroke-miterlimit:3.86400008;stroke-dasharray:none"/><path d="m785.25 526.55.61-1.79.49-1.02.44-1.1c.13-.15 0-.43 0-.43l.29-.22.8-.37s.26-.03.18.15c-.07.18-.55.73-.76.91-.22.18-.26.18-.3.29-.03.11-.51 1.68-.51 1.68l-.37 1.14-.47.65-.4.11z" style="fill:#fff;fill-rule:nonzero;stroke:none;stroke-width:.102;stroke-linecap:butt;stroke-linejoin:miter;stroke-miterlimit:3.86400008;stroke-dasharray:none"/><path d="m765.11 494.43-.65.01.1 2.52c.01 1.35-.43 2.45-.43 2.45l-.51 1.22-.5.94-.47 1.01c-.26.48-.29 1.03-.29 1.03l.02.32c.01.8-.61.76-.61.76l-2.64.55-1.37.12c-3-.04-2.55 3.38-2.55 3.38.07.46.38.82.38.82l.34.59c.21.42-.25.83-.25.83l-.36.18c-.25.12-.11.77-.11.77l.08.24.1.37c.02.21-.18.41-.18.41-.17.27 0 .89 0 .89l.04.77-.04.38s-.03.43-.03.39c0-.04-.01.04-.01.04l-.48-.02c-1.49-.04-1.44 1.44-1.44 1.44.07.58.78 1.31.78 1.31l.71 1.25.85 1.24.94 1.27c.32.41.23 1.27.23 1.27l-.01.6c-.01.75.25.97.25.97l.47.76s.43 1.08.45 1.12c.3.49.49 2.6.34 2.8.15-.07-1.1.58-1.17.86-.33 1.99.21 3 .21 3l1.31 1.14.98 1.18c1.23 1.87 2.39 1.91 2.39 1.91.33.8 1.38 1.61 1.38 1.61s1.08.74 3.06.44c.58-.01.77-.56.77-.56s.23-1.73 1.07-2.1c1.08-.72 1.69.07 1.69.07.44.2.6-.32.01-.51-.17-.03-.65-.09-.65-.09-1.59-.33-2.04.95-2.04.95l-.47 1.18c-.17.73-1.1.68-1.1.68l-1.27-.08c-.29 0-.56-.05-.81-.17-.36-.25-.72-.85-.72-.85l-.21-.3-.34-.39-.31-.21-.38-.17s-.86-.36-1.75-1.53c-.26-.5-.6-.97-.96-1.44l-.85-.63c-.98-.78-.75-1.82-.75-1.82l.03-.91c.03-.26.5-.53 1.11-.76.24-.12.29-.42.29-.42l.04-.76-.12-1.4-.26-1.02-.38-1.03-.37-.7c-.27-.51-.18-.96-.18-.96v-.97c.02-.63-.81-1.28-.81-1.28l-.69-.88-.84-1.45-.3-.38c-.51-.52-1.17-1.7-1.17-1.7.03-.37-.27-1.04.9-1 .21.01 1 .09 1 .09.64-.09 1.09-.36 1.09-.36.31-.43.82-.29.98-.24.25.08.37.12.13.76-.04.13-.22.59-.22.59l.1.09s.62-.89.66-1.52c-.74-.47-1.11-.33-1.11-.33l-.76.31-.59.09c-.5.25-.2.09-.2.09.32-.41.05-1.48.05-1.48l-.07-.4s-.07-.29.21-.32c.21-.02.33-.03.39-.05.09-.02.2-.11.23-.16.32-.49.49-.33.49-.33s.41.02.54.03c.11 0 .27-.44-.07-.44-.39-.02-.62-.03-.62-.03-.11 0-.46.27-.46.27-.71.3-1.12-1.59-.18-1.37.24-.2.4-.94.4-.94 0-.35-.78-1.21-.78-1.21s-.2-.41-.05-1.31c.12-1.1 1.09-1.87 2.89-1.87.87-.03 2.21-.12 2.25-.12.04 0 1.13-.04 1.23-.05 2.61-.11 5.76 2.73 5.76 2.73l2.41 2.53c1.03.9.93.07.93.07.56-.22-.83-1.59-.83-1.59.11.07-3.11-2.12-3.11-2.12-1.28-.82-1.29-1.32-1.29-1.32-.1-.97-.12-1-.12-1s-1.43-.97-1.67-.91c-.16.04 1.25 1.18 1.25 1.18.26.55-.35.32-.47.28-.93-.6-2.15-.57-2.15-.57l-.02-.72c.09-1.22.55-2.08.55-2.08l.64-1.11.42-.89c.56-1.02.72-2.37.72-2.37l-.04-3.45z" style="fill:#fff;fill-rule:evenodd;stroke:none;stroke-width:.102;stroke-linecap:butt;stroke-linejoin:miter;stroke-miterlimit:3.86400008;stroke-dasharray:none"/><path d="m765.11 494.43-.65.01.1 2.52c.01 1.35-.43 2.45-.43 2.45l-.51 1.22-.5.94-.47 1.01c-.26.48-.29 1.03-.29 1.03l.02.32c.01.8-.61.76-.61.76l-2.64.55-1.37.12c-3-.04-2.55 3.38-2.55 3.38.07.46.38.82.38.82l.34.59c.21.42-.25.83-.25.83l-.36.18c-.25.12-.11.77-.11.77l.08.24.1.37c.02.21-.18.41-.18.41-.17.27 0 .89 0 .89l.04.77-.04.38s-.03.43-.03.39c0-.04-.01.04-.01.04l-.48-.02c-1.49-.04-1.44 1.44-1.44 1.44.07.58.78 1.31.78 1.31l.71 1.25.85 1.24.94 1.27c.32.41.23 1.27.23 1.27l-.01.6c-.01.75.25.97.25.97l.47.76s.43 1.08.45 1.12c.3.49.49 2.6.34 2.8.15-.07-1.1.58-1.17.86-.33 1.99.21 3 .21 3l1.31 1.14.98 1.18c1.23 1.87 2.39 1.91 2.39 1.91.33.8 1.38 1.61 1.38 1.61s1.08.74 3.06.44c.58-.01.77-.56.77-.56s.23-1.73 1.07-2.1c1.08-.72 1.69.07 1.69.07.44.2.6-.32.01-.51-.17-.03-.65-.09-.65-.09-1.59-.33-2.04.95-2.04.95l-.47 1.18c-.17.73-1.1.68-1.1.68l-1.27-.08c-.29 0-.56-.05-.81-.17-.36-.25-.72-.85-.72-.85l-.21-.3-.34-.39-.31-.21-.38-.17s-.86-.36-1.75-1.53c-.26-.5-.6-.97-.96-1.44l-.85-.63c-.98-.78-.75-1.82-.75-1.82l.03-.91c.03-.26.5-.53 1.11-.76.24-.12.29-.42.29-.42l.04-.76-.12-1.4-.26-1.02-.38-1.03-.37-.7c-.27-.51-.18-.96-.18-.96v-.97c.02-.63-.81-1.28-.81-1.28l-.69-.88-.84-1.45-.3-.38c-.51-.52-1.17-1.7-1.17-1.7.03-.37-.27-1.04.9-1 .21.01 1 .09 1 .09.64-.09 1.09-.36 1.09-.36.31-.43.82-.29.98-.24.25.08.37.12.13.76-.04.13-.22.59-.22.59l.1.09s.62-.89.66-1.52c-.74-.47-1.11-.33-1.11-.33l-.76.31-.59.09c-.5.25-.2.09-.2.09.32-.41.05-1.48.05-1.48l-.07-.4s-.07-.29.21-.32c.21-.02.33-.03.39-.05.09-.02.2-.11.23-.16.32-.49.49-.33.49-.33s.41.02.54.03c.11 0 .27-.44-.07-.44-.39-.02-.62-.03-.62-.03-.11 0-.46.27-.46.27-.71.3-1.12-1.59-.18-1.37.24-.2.4-.94.4-.94 0-.35-.78-1.21-.78-1.21s-.2-.41-.05-1.31c.12-1.1 1.09-1.87 2.89-1.87.87-.03 2.21-.12 2.25-.12.04 0 1.13-.04 1.23-.05 2.61-.11 5.76 2.73 5.76 2.73l2.41 2.53c1.03.9.93.07.93.07.56-.22-.83-1.59-.83-1.59.11.07-3.11-2.12-3.11-2.12-1.28-.82-1.29-1.32-1.29-1.32-.1-.97-.12-1-.12-1s-1.43-.97-1.67-.91c-.16.04 1.25 1.18 1.25 1.18.26.55-.35.32-.47.28-.93-.6-2.15-.57-2.15-.57l-.02-.72c.09-1.22.55-2.08.55-2.08l.64-1.11.42-.89c.56-1.02.72-2.37.72-2.37l-.04-3.45z" style="fill:none;stroke:#fff;stroke-width:.000001;stroke-linecap:butt;stroke-linejoin:miter;stroke-miterlimit:3.86400008;stroke-dasharray:none"/><path d="M773.27 530.16c-.11-.21.37-.64.37-.64l.73-.91s.61-.54.52-1.57c.11-.94-.25-1.08-.43-1.58-.03-.56.26-1.66.26-1.66.14-.33.51-2.39.51-2.39s.14-2.01.23-2.01c.14-.16 1-.19 2.58-.1 1.09-.51 1-1.79 1.1-1.79.1 0 .37.12.37.12l.2.48c.11.2.17.51.17.51-.43.13-.62.35-.62.35-.18.26-.1.63-.1.63.06.36-.63.3-.63.3-2.4-.27-2.55-.03-2.55-.03-.19.24-.58 3.45-.58 3.45l-.41 1.71c-.01.54.38 1.24.38 1.24.15.66.01 1.63.01 1.63-.25.72-.96 1.48-.96 1.48-.47.46-.41.71-.41.71.87 1.84 1.05 3.08 1.05 3.08l.12 1.03c-.15 1.29-.53 1.43-.53 1.43-.17.14-.76.33-.76.33-.61.2-1.45.24-1.67.24-.27.02-.91-.1-.91-.1-.29-.05-.62-.19-.62-.19s-.43-.2-.03-.23c.09 0 1.22.18 1.51.14.28-.05.97-.06 2.03-.51.89-.27.31-2.45.31-2.45l-1.24-2.7z" style="fill:#fff;fill-rule:nonzero;stroke:none;stroke-width:.000001;stroke-linecap:butt;stroke-linejoin:miter;stroke-miterlimit:3.86400008;stroke-dasharray:none"/><path d="M773.27 530.16c-.11-.21.37-.64.37-.64l.73-.91s.61-.54.52-1.57c.11-.94-.25-1.08-.43-1.58-.03-.56.26-1.66.26-1.66.14-.33.51-2.39.51-2.39s.14-2.01.23-2.01c.14-.16 1-.19 2.58-.1 1.09-.51 1-1.79 1.1-1.79.1 0 .37.12.37.12l.2.48c.11.2.17.51.17.51-.43.13-.62.35-.62.35-.18.26-.1.63-.1.63.06.36-.63.3-.63.3-2.4-.27-2.55-.03-2.55-.03-.19.24-.58 3.45-.58 3.45l-.41 1.71c-.01.54.38 1.24.38 1.24.15.66.01 1.63.01 1.63-.25.72-.96 1.48-.96 1.48-.47.46-.41.71-.41.71.87 1.84 1.05 3.08 1.05 3.08l.12 1.03c-.15 1.29-.53 1.43-.53 1.43-.17.14-.76.33-.76.33-.61.2-1.45.24-1.67.24-.27.02-.91-.1-.91-.1-.29-.05-.62-.19-.62-.19s-.43-.2-.03-.23c.09 0 1.22.18 1.51.14.28-.05.97-.06 2.03-.51.89-.27.31-2.45.31-2.45l-1.24-2.7z" style="fill:none;stroke:#fff;stroke-width:.000001;stroke-linecap:butt;stroke-linejoin:miter;stroke-miterlimit:3.86400008;stroke-dasharray:none"/><path d="m776.38 507.18-1.85-2.33-2.51-3.75-1.48-2.98-1.91-6.8h.9c.63 5.51 3.76 10.67 3.76 10.67l2.81 3.76 3.32 4.17 2.77 2.65s3.15 2.39 3.44 2.63c.22.47.52-.74.52-.74.3-.59.45-.83.45-.83.48-1.53-.04-1.46-.04-1.46-1.06-.14-1.53-.92-1.53-.92-.74-1.16-.34-2.52-.34-2.52-1.5.16-1.94-.98-1.94-.98-.9-1.7-.18-3.37-.18-3.37s.22-1.1.17-1.92c0-.1-.04-1.22.41-1.47.42-.3.76-.36.76-.36s.26-.51.64-.56c.75-.1 1.24.89 1.29.94.04.04.89.8.89.8s.47.32 1.12.16c.08-.01.9.05.9.05.88.05 1.18.9 1.18.9s.06-2.09 1.49-2.52c-.14-.19-.12-.57-.12-.57-.28-1.17.58-1.74.58-1.74 1.86-1.13 3.73-.05 3.73-.05 1.11.64 1.17 2.2 1.17 2.2.14 1.28-.02 2.02-.02 2.02-1.03 1.63.04 2.78.04 2.78.35.31.58.93.7 1.85.14 1.52-.64 2.06-.64 2.06-.52.43-.37.9-.37.9l.16 1.85c.02.92-.38 1.68-.38 1.68-.12.43-.82.74-.82.74-.51.12-1.25.1-1.25.1-1.59-.1-1.48-.39-1.67-.32-.12.04.23.39.13.92-.47.87-.22 1.38-.22 1.38l.82 1.15c1.13 2.02.94 4.47.94 4.47-.29 4.26-1.1 6.53-1.1 6.53-1.18 3.79-2.96 7.16-2.96 7.16-2.3 3.71-7.26 4.38-7.26 4.38-2.44.5-6.64.32-6.64.32-2.18-.17-3.41-.71-3.41-.71s-1.92-.74-2.72-2.02c-.03-.04-.28-.67-.19-.71.22-.12.19-.29.19-.29.06-.2-.19-.47-.19-.47l-.6-.92s-.3-.49-.62-1.58c.01-.01-.4-1.03-.4-1.03-.18-.72-.37-1.38-.37-1.38-.06-.08-.79-1.58-.79-1.58-.21-1.13-.61-1.57-.61-1.57l-2.88-4.47c-.34-.63-.36-1.23-.28-1.46.1-.3.17-.43.46-.43.29 0 .89-.07 1.08-.06.52.01.55-.41.55-.41s.01-1.32.03-1.43c.01-.14.04-.8.04-.8s-.04-.42.52-.63c.01-.03.1-.13-.1-.44-.04-.09-.17-.85-.15-.92.03-.07.01-.18.21-.27.6-.25.59-.69.59-.69.12-.25-.5-1.32-.5-1.32-.35-.55-.2-2.19-.18-2.29.21-1.34 1.73-1.68 1.73-1.68 1.53-.07 2.39-.02 2.39-.02l1.8.17c.54.05.55-.89.55-.89l1.4-6.17c.47.7.44.67.44.67l-.26 1.38-.78 3.6c-.31 1.71-.3 1.22-.3 1.41 0 .19.62.25.62.25 4.17.72 4.59 2.02 4.78 2.3.67 1.18 1.77 4.62 1.77 4.62s.36.44.69.54c.43.12.83-.13.83-.13.19-.1.64-.62.64-.62.29-.21.93-.41.93-.41.27-.06 1.22-.47 1.33-.5.09-.03.4-.27.48-.35.09-.06 1.06-.31 1.06-.31-.19.4-.09.46-.88 1.07-.12.09-2.12.74-2.12.74-.51.29-.8.58-.9.67-.71.59-1.08.68-1.08.68-.72.13-1.62-1.04-1.62-1.04l-.3-.63c.08-.78-1.3-3.72-1.3-3.72-.2-.38-.29-1.08-1.35-1.28-.88-.34-1.42-.49-2.48-.68-1.77-.4-3.02-.4-3.02-.4l-2.14-.04c-3.71-.1-2.34 2.84-2.34 2.84l.33.81c.09.23.26.12.45.11.55-.02.09.47.09.47-.21.22-.5.75-.05 1.16.01.12-.22.08-.22.08-.48-.31-.7-.04-.7-.04-.29.44.12.7.12.7s.24.26 1.12.02c.21-.05.72 0 .72 0 .36.07.35.36.35.36-.47.34-.36.31-.58.42-.12.05-.23-.64-.99-.1-.41.39-.48.35-.53.35-.44 0-.49-.13-.62.36l-.04 1.77.02.52.8-.1c.48-.17.74-.1.74-.1-.17-.07.82.08.46.93-.21-.52-1.26-.23-1.26-.23-.76.55-1.82.29-1.82.29-1.35-.2-.74.82-.74.82l1.29 2.03s1.41 1.97 2.16 3.24c.17 1.38.41 1.91.41 1.91.56.62.71 1.15.73 1.19.75 2.49.87 2.98.87 2.98.1.43.62 1.25 1.19 1.35-.49.51-.37 1.56-.01 1.83.27.36 1.01.86 1.01.86.18.14 2.23 1.11 4.56 1.19 2.24.08 4.15-.03 5.74-.23 1.41-.17 5.18-1.81 5.18-1.81 1.14-.58 2.04-1.9 2.04-1.9.72-.76 2.24-4.32 2.24-4.32s1.11-3.79 1.16-3.79c.05 0 .83-2.58.97-6.89-.17-2.86-1.55-3.66-1.55-3.67-.22-.43-.21-.72-.21-.72-.03-.46.05-.76.05-.76.34-.74.26-1.1.26-1.1.05-.1-.26-.72-.26-.72s-.11-.47.78-.32c.19.03.81.16.81.16 1.36.17 2.35.08 2.65-1.58 0 0-.38-1.45-.24-2.72 1.23-1.37 1.03-2.58 1.03-2.63 0-.05.01-.17-.47-.78-.03-.04-.78-1.29-.78-1.29-.31-1.31.14-2.16.14-2.16.45-.73.22-2.29.22-2.29-.54-2.84-5.63-2.4-4.2.5-1.2.84-1.29 1.57-1.29 1.57l-.63 1.81-1.05-1.04c-.41-.51-1.38-.51-1.38-.51l-1.42.11s.12-.7-.59-1.1c-.99-1.28-1.47-.47-1.47-.47-1.08.71-.92 3.3-.92 3.3-.93 1.13-.07 2.57-.07 2.57.26 1.61 2 1.57 2 1.57v1.06c.01.59.39 1.38.39 1.38.56.65 1.09.74 1.09.74.97.05.74 1 .74 1l-.25 1.1-.43 1.6c-.1.3-.62.96-.62.96l-.57-.38-3.2-2.45c-2.54-1.97-5.86-6.2-5.86-6.2" style="fill:#fff;fill-rule:evenodd;stroke:none;stroke-width:.000001;stroke-linecap:butt;stroke-linejoin:miter;stroke-miterlimit:3.86400008;stroke-dasharray:none"/><path d="M759.31 532.53c-.02-.03-.05-.04-.07-.06-.58-.39-.94-1.18-.94-1.18l-.11-.92c.15-.36.59-.04.59-.04s.08.6.33.89c.16.28.6.66 1.46.88.39.07.55.14.61.13.45-.09.18-.43.18-.43-.09-.05-.93-.24-.93-.24-.99-.16-1.17-1.15-1.17-1.15-.03-.86-.48-1.49-.48-1.49-.18.87-.71 1.13-.71 1.13-.13.32-.15.63-.15.63.02.81.3 1.47.52 1.85h.87zm3.36 0c-.34-.72-.71-.32-.89-.01l.89.01zm3.22 0c-.32-.19-.54-.23-.54-.23l-1.65-.43s-.06-.1-.04-.12c.02-.01.35-.98 1.63-.13.03.02.67.51 1.18.91h1.97c-.12-.37-.27-.78-.27-.78.28.21-1.13-.75-1.13-.75l-.6-.38c-1.02-.79-2.13-.58-2.13-.58-.53.01-.85.29-.85.29l-.19.14c.91-.15 1.65-.2 2.17.07.04 0 1.49.64 2.34 1.72-.02.42-.79.14-.79.14l-.51-.27c-.41-.14-1.67-1.25-1.67-1.25-.2-.15-.49-.04-.49-.04-.45.58-1.2.69-1.2.69l-.55-.03c-.52-.17-.43.13-.43.13s.27.38 1.96.71c.41.07.72.13.95.18l.84.01z" style="fill:#fff;fill-rule:evenodd;stroke:none;stroke-width:.000001;stroke-linecap:butt;stroke-linejoin:miter;stroke-miterlimit:3.86400008;stroke-dasharray:none"/><path d="M765.3 536.13c-.28-.05-.51-.14-.59-.21-.04 0-.96-.52-1.34-1 0 0-.94-1.06-.99-1.55 0 0-.01-.18.14-.24 0 0 .12-.03.15-.02.1.11.62 1.2.98 1.48 0 0 1.34 1.13 2.28.67l.73-.51s.22-.14.37-.14c0 0 .47-.03.84.09 0 0 .51.07.08.3l-.24.1-.23.08c-.21.06-.52.3-.9.74 0 0-.26.15-.46.21h1.02c.33-.35.68-.55.71-.55.03 0 .58-.17 1.27.55h.92c-.02-.02-.04-.05-.07-.09l-.75-.38s-.58-.35-.62-.71c.05-.46.69-.01.69-.01.22-.6-.31-.9-.31-.9-.22.12-1.05.02-1.05.02-.64-.17-1.14-.74-1.14-.74-.32-.4-.65-.65-.9-.8l-.84.01c.79.18.74.35.81.51 0 0 .07.2-.16.13-.06-.01-.88-.15-.94-.15-.07 0-.19-.02-.19-.02s.56.4 2 .49c.24.4.2.34-.07.5 0 0-.58.16-.87.07-.59-.12-1.03-.56-1.03-.56l-.61-.52-.66-.39s.1.3.11.32c.39.56 1.5 1.18 1.5 1.18l.65.26c.41.47-.56.38-.56.38-1.14 0-1.95-1.29-1.95-1.29s-.34-.83-.39-.88c-.01-.02-.01-.03-.02-.04l-.89.01a.92.92 0 0 0-.13.25c0 .02-.23.15-.26.15s-.31.07-.31.07c-1.11.08-1.54-.3-1.77-.48l-.87.01c.12.22.23.35.23.35.38.31.62.52.99.62 0 0 .6.23 2.11.13.29.23-.02.43-.02.43s-.81.26-2.41.07c-.26-.07-.38.15-.38.15-.02.05.67.98.71.98.03 0 1.55.39 3.03.05.82-.19.48.52.4.54-.06.11-.44.21-.79.29l2.99-.01zm1.17-3.6c.37.28.68.52.68.52.48.26 1.48.07 1.48.07.01-.01-.08-.29-.19-.59h-1.97zm-6.82 1.93c.65.03.93.09.93.09.48.05 1.17-.13 1.17-.13.21-.07.65-.08.65-.08.45.09.16.49.16.49-.6.43-1.55.37-1.55.37-1.17.03-1.53-.57-1.53-.57-.04-.04-.04-.19.17-.17" style="fill:#fff;fill-rule:evenodd;stroke:none;stroke-width:.000001;stroke-linecap:butt;stroke-linejoin:miter;stroke-miterlimit:3.86400008;stroke-dasharray:none"/><path d="M762.31 536.13c-.34.08-.65.13-.65.13-.06-.01.77.37 2.28-.1.28-.09.28.3.28.3-.05.29-.77.66-.73.61-.89.25-1.76.14-1.76.14l1.16 1.36s.29.05.32.05c.04 0 .62.12 1.11-.02.46-.13 1.05-1.14 1.05-1.14l.29-.41c.56-.89.41.02.41.02s-.05.23-.07.27c-.23.79-.59 1.24-.82 1.57-.17.26-.86.31-.86.31-1.38-.16.67.45 1.27.15.04-.02.31-.44.31-.44l.87-2.27c.1-.2.24-.38.37-.53h-1.02c-.02.01-.04.01-.07.01-.24.06-.51.04-.75 0l-2.99-.01zm6.81 0c.06.06.11.12.16.18.18.21.23.28.23.28.39.05.92.05.53-.46h-.92zm-6.1 1.6c.08-.02.26-.01.26-.01 1.21-.09 1.3-.83 1.3-.83.03-.16.59-.75.58.3-.26 1.06-1.47 1.04-1.47 1.04-.49-.01-.72-.23-.72-.23s-.11-.2.05-.27" style="fill:#fff;fill-rule:evenodd;stroke:none;stroke-width:.000001;stroke-linecap:butt;stroke-linejoin:miter;stroke-miterlimit:3.86400008;stroke-dasharray:none"/><path d="M758.2 520.69c.3 0 .48.02.72.05l.07.98v.44l.08.37.22.25s.14.15.29.15c.14 0 .43-.04.43-.04l.51-.04.37-.18.67-.26.45-.63.11-.21.31-.13c.08-.02.36-.12.36-.12-.07.08-.75 1.19-.85 1.31 0 0-.2.16-.28.14-.26.13-.44.13-.44.13l-.58.26-.4.22-.43.07h-.42l-.4-.03-.44-.05-.13-.18.15-.43.08-.31v-.81l-.13-.46-.32-.49z" style="fill:#fff;fill-rule:nonzero;stroke:none;stroke-width:.000001;stroke-linecap:butt;stroke-linejoin:miter;stroke-miterlimit:3.86400008;stroke-dasharray:none"/><path d="M758.2 520.69c.3 0 .48.02.72.05l.07.98v.44l.08.37.22.25s.14.15.29.15c.14 0 .43-.04.43-.04l.51-.04.37-.18.67-.26.45-.63.11-.21.31-.13c.08-.02.36-.12.36-.12-.07.08-.75 1.19-.85 1.31 0 0-.2.16-.28.14-.26.13-.44.13-.44.13l-.58.26-.4.22-.43.07h-.42l-.4-.03-.44-.05-.13-.18.15-.43.08-.31v-.81l-.13-.46-.32-.49z" style="fill:none;stroke:#fff;stroke-width:.102;stroke-linecap:butt;stroke-linejoin:miter;stroke-miterlimit:3.86400008;stroke-dasharray:none"/><path d="M759.79 520.1h.3s.16.01.2.01h.32c.06 0 .3.1.33.1.02 0 .5.31.5.31l.11.14-.07.19-.11.27s-.17.12-.21.14c-.04.01-.2.1-.2.1l-.17.14-.23.15-.2.15-.13.1-.24.08-.08.01-.06.03-.13-.03-.1-.06.02-.09.05-.08.12-.05.14-.06.16-.06.2-.1.18-.07.15-.12.12-.15.08-.17-.23-.1-.17.02-.09.13-.09.07-.1.11-.11.06-.08.02-.17-.01-.15-.07-.01-.14.02-.13.02-.22s.13-.02.15-.02c.03 0 .18-.02.18-.02l.15.04s.08.03.1.03c.03 0 .14.03.18.03.03 0 .17-.02.17-.02l.18-.14-.03-.16-.19-.1h-.12l-.2-.05-.16-.03-.27-.02-.09-.08.06-.08z" style="fill:#fff;fill-rule:nonzero;stroke:none;stroke-width:.102;stroke-linecap:butt;stroke-linejoin:miter;stroke-miterlimit:3.86400008;stroke-dasharray:none"/><path d="M759.79 520.1h.3s.16.01.2.01h.32c.06 0 .3.1.33.1.02 0 .5.31.5.31l.11.14-.07.19-.11.27s-.17.12-.21.14c-.04.01-.2.1-.2.1l-.17.14-.23.15-.2.15-.13.1-.24.08-.08.01-.06.03-.13-.03-.1-.06.02-.09.05-.08.12-.05.14-.06.16-.06.2-.1.18-.07.15-.12.12-.15.08-.17-.23-.1-.17.02-.09.13-.09.07-.1.11-.11.06-.08.02-.17-.01-.15-.07-.01-.14.02-.13.02-.22s.13-.02.15-.02c.03 0 .18-.02.18-.02l.15.04s.08.03.1.03c.03 0 .14.03.18.03.03 0 .17-.02.17-.02l.18-.14-.03-.16-.19-.1h-.12l-.2-.05-.16-.03-.27-.02-.09-.08.06-.08z" style="fill:none;stroke:#fff;stroke-width:.102;stroke-linecap:butt;stroke-linejoin:miter;stroke-miterlimit:3.86400008;stroke-dasharray:none"/><path d="m759.94 519.65.03-.18.07-.13.12-.1.1-.04.17-.02.19.06.11.12.05.09-.02.08s.06.04-.09.04-.24-.01-.24-.01l-.17.03-.08.04-.1.03h-.11l-.03-.01z" style="fill:#fff;fill-rule:nonzero;stroke:none;stroke-width:.102;stroke-linecap:butt;stroke-linejoin:miter;stroke-miterlimit:3.86400008;stroke-dasharray:none"/><path d="m759.94 519.65.03-.18.07-.13.12-.1.1-.04.17-.02.19.06.11.12.05.09-.02.08s.06.04-.09.04-.24-.01-.24-.01l-.17.03-.08.04-.1.03h-.11l-.03-.01z" style="fill:none;stroke:#fff;stroke-width:.102;stroke-linecap:butt;stroke-linejoin:miter;stroke-miterlimit:3.86400008;stroke-dasharray:none"/><path d="m784.85 516.8-.33-.26-.29-.22-.44-.29-.59-.4-.55-.44-.58-.51-.66-.52-.58-.4-.52-.44-.36-.32c-.15-.06-.33-.08-.33-.08-.08.01-.06.14-.06.14.11.1.22.18.22.18l.35.27.44.29.44.33.51.4.4.33.48.4.4.37.55.47.69.7.26.36.22.15h.25l.18-.11-.1-.4z" style="fill:#fff;fill-rule:nonzero;stroke:none;stroke-width:.102;stroke-linecap:butt;stroke-linejoin:miter;stroke-miterlimit:3.86400008;stroke-dasharray:none"/><path d="m784.85 516.8-.33-.26-.29-.22-.44-.29-.59-.4-.55-.44-.58-.51-.66-.52-.58-.4-.52-.44-.36-.32c-.15-.06-.33-.08-.33-.08-.08.01-.06.14-.06.14.11.1.22.18.22.18l.35.27.44.29.44.33.51.4.4.33.48.4.4.37.55.47.69.7.26.36.22.15h.25l.18-.11-.1-.4z" style="fill:none;stroke:#fff;stroke-width:.102;stroke-linecap:butt;stroke-linejoin:miter;stroke-miterlimit:3.86400008;stroke-dasharray:none"/><path d="M781.6 513.65c.07-.06.03-.14.03-.14l-.22-.29-1.47-1.18-.36-.29-.4-.33-.33-.29-.22-.18c-.06-.05-.12-.05-.18 0 0 .1.15.22.15.22.06.07.54.4.54.4l.48.4.47.37.63.47.33.26.25.25.11.13c.12.26.19.2.19.2" style="fill:#fff;fill-rule:nonzero;stroke:none;stroke-width:.102;stroke-linecap:butt;stroke-linejoin:miter;stroke-miterlimit:3.86400008;stroke-dasharray:none"/><path d="M781.6 513.65c.07-.06.03-.14.03-.14l-.22-.29-1.47-1.18-.36-.29-.4-.33-.33-.29-.22-.18c-.06-.05-.12-.05-.18 0 0 .1.15.22.15.22.06.07.54.4.54.4l.48.4.47.37.63.47.33.26.25.25.11.13c.12.26.19.2.19.2z" style="fill:none;stroke:#fff;stroke-width:.102;stroke-linecap:butt;stroke-linejoin:miter;stroke-miterlimit:3.86400008;stroke-dasharray:none"/><path d="m783.7 517.39-.08-.1-.09-.11-.29-.26-.31-.25-.36-.3-.23-.2-.3-.28-.32-.28-.26-.26-.19-.16-.19-.17-.21-.19-.15-.11-.13-.06-.15.02-.03.11.11.14.27.21.26.21.32.29.33.32.31.33.33.33.34.31.32.33.25.32.11.02h.14l.09-.05.11-.16z" style="fill:#fff;fill-rule:nonzero;stroke:none;stroke-width:.102;stroke-linecap:butt;stroke-linejoin:miter;stroke-miterlimit:3.86400008;stroke-dasharray:none"/><path d="m783.7 517.39-.08-.1-.09-.11-.29-.26-.31-.25-.36-.3-.23-.2-.3-.28-.32-.28-.26-.26-.19-.16-.19-.17-.21-.19-.15-.11-.13-.06-.15.02-.03.11.11.14.27.21.26.21.32.29.33.32.31.33.33.33.34.31.32.33.25.32.11.02h.14l.09-.05.11-.16z" style="fill:none;stroke:#fff;stroke-width:.102;stroke-linecap:butt;stroke-linejoin:miter;stroke-miterlimit:3.86400008;stroke-dasharray:none"/><path d="m782.88 517.76-.17-.1-.12-.16-.16-.16-.12-.13-.2-.21-.13-.13-.14-.16-.18-.2-.12-.12-.07-.07-.1-.09c-.13-.09-.21-.02-.21-.02-.03.12.1.23.1.23l.1.14.14.16.13.13.2.22.17.2.13.15.1.12.13.12.01.1-.03.11s.11.03.12.03c.02 0 .14-.02.14-.02l.07-.02.09-.02.12-.1z" style="fill:#fff;fill-rule:nonzero;stroke:none;stroke-width:.102;stroke-linecap:butt;stroke-linejoin:miter;stroke-miterlimit:3.86400008;stroke-dasharray:none"/><path d="m782.88 517.76-.17-.1-.12-.16-.16-.16-.12-.13-.2-.21-.13-.13-.14-.16-.18-.2-.12-.12-.07-.07-.1-.09c-.13-.09-.21-.02-.21-.02-.03.12.1.23.1.23l.1.14.14.16.13.13.2.22.17.2.13.15.1.12.13.12.01.1-.03.11s.11.03.12.03c.02 0 .14-.02.14-.02l.07-.02.09-.02.12-.1z" style="fill:none;stroke:#fff;stroke-width:.102;stroke-linecap:butt;stroke-linejoin:miter;stroke-miterlimit:3.86400008;stroke-dasharray:none"/><path d="m779.41 518.16-.28-.12-.42-.67-.82-1.45-1.33-1.88c-.49-.82-1.02-1.03-1.02-1.03-.3-.06-1.13-.27-1.13-.27l.86.63c.51.27 1.26 1.17 1.26 1.17l.61.76.49.68.37.58.44.71c.09.07.4 1.39.4 1.39l.19-.03.16-.14.13-.15.09-.18z" style="fill:#fff;fill-rule:evenodd;stroke:none;stroke-width:.102;stroke-linecap:butt;stroke-linejoin:miter;stroke-miterlimit:3.86400008;stroke-dasharray:none"/><path d="m779.41 518.16-.28-.12-.42-.67-.82-1.45-1.33-1.88c-.49-.82-1.02-1.03-1.02-1.03-.3-.06-1.13-.27-1.13-.27l.86.63c.51.27 1.26 1.17 1.26 1.17l.61.76.49.68.37.58.44.71c.09.07.4 1.39.4 1.39l.19-.03.16-.14.13-.15.09-.18z" style="fill:none;stroke:#fff;stroke-width:.102;stroke-linecap:butt;stroke-linejoin:miter;stroke-miterlimit:3.86400008;stroke-dasharray:none"/><path d="m778.79 518.85-.14-.21-.4-.53-.28-.41-.39-.59-.35-.44-.34-.39-.34-.44-.41-.46-.42-.45-.37-.39-.39-.38-.38-.36-.33-.32-.81-.84-.5-.07.64.62.34.33.58.49.34.32.39.35.24.25.19.21.31.34.32.39.27.38.48.6.29.35.5.76.52.88.18.36.27-.17-.01-.18z" style="fill:#fff;fill-rule:nonzero;stroke:none;stroke-width:.102;stroke-linecap:butt;stroke-linejoin:miter;stroke-miterlimit:3.86400008;stroke-dasharray:none"/><path d="m778.79 518.85-.14-.21-.4-.53-.28-.41-.39-.59-.35-.44-.34-.39-.34-.44-.41-.46-.42-.45-.37-.39-.39-.38-.38-.36-.33-.32-.81-.84-.5-.07.64.62.34.33.58.49.34.32.39.35.24.25.19.21.31.34.32.39.27.38.48.6.29.35.5.76.52.88.18.36.27-.17-.01-.18z" style="fill:none;stroke:#fff;stroke-width:.102;stroke-linecap:butt;stroke-linejoin:miter;stroke-miterlimit:3.86400008;stroke-dasharray:none"/><path d="m778.17 519.54-.2-.29-.18-.32-.43-.54-.51-.62-.79-1.01-.51-.59-.34-.41-.73-.83-.32-.33-.7-.69-.35-.35-.56-.51c-.88-.71-1.15-.73-1.15-.73-.33-.04-.64-.04-.64-.04s.36.25.38.25c.02 0 .27.12.27.12l.29.17.34.23.43.33.34.32.77.74.49.49.43.46.6.67.59.67.45.56.82 1.06.81 1.19s.06.13.08.15c.38.29.32-.15.32-.15" style="fill:#fff;fill-rule:nonzero;stroke:none;stroke-width:.102;stroke-linecap:butt;stroke-linejoin:miter;stroke-miterlimit:3.86400008;stroke-dasharray:none"/><path d="m778.17 519.54-.2-.29-.18-.32-.43-.54-.51-.62-.79-1.01-.51-.59-.34-.41-.73-.83-.32-.33-.7-.69-.35-.35-.56-.51c-.88-.71-1.15-.73-1.15-.73-.33-.04-.64-.04-.64-.04s.36.25.38.25c.02 0 .27.12.27.12l.29.17.34.23.43.33.34.32.77.74.49.49.43.46.6.67.59.67.45.56.82 1.06.81 1.19s.06.13.08.15c.38.29.32-.15.32-.15z" style="fill:none;stroke:#fff;stroke-width:.102;stroke-linecap:butt;stroke-linejoin:miter;stroke-miterlimit:3.86400008;stroke-dasharray:none"/><path d="m771.57 513.81-.27-.18-.36-.25-.43-.21-.31-.15-.27-.11-.36-.14-.5-.12-.66-.06-.5-.03s-.71-.17-.02-.28c.03-.01.41.02.41.02l.53.05c.53.03 1.14.29 1.16.29.02 0 .72.29.72.29l1.16.77.9.81c.18.33-1.2-.7-1.2-.7" style="fill:#fff;fill-rule:nonzero;stroke:none;stroke-width:.102;stroke-linecap:butt;stroke-linejoin:miter;stroke-miterlimit:3.86400008;stroke-dasharray:none"/><path d="m771.57 513.81-.27-.18-.36-.25-.43-.21-.31-.15-.27-.11-.36-.14-.5-.12-.66-.06-.5-.03s-.71-.17-.02-.28c.03-.01.41.02.41.02l.53.05c.53.03 1.14.29 1.16.29.02 0 .72.29.72.29l1.16.77.9.81c.18.33-1.2-.7-1.2-.7z" style="fill:none;stroke:#fff;stroke-width:.102;stroke-linecap:butt;stroke-linejoin:miter;stroke-miterlimit:3.86400008;stroke-dasharray:none"/><path d="M764.48 506.8c-1.36-.3-1.7-.25-1.7-.25l-4.28-.19c-.68.02-1.03.14-1.03.14l1.03.13c1.3-.03 5.46.53 5.46.53l1.75.24-1.23-.6z" style="fill:#fff;fill-rule:nonzero;stroke:none;stroke-width:.102;stroke-linecap:butt;stroke-linejoin:miter;stroke-miterlimit:3.86400008;stroke-dasharray:none"/><path d="M764.48 506.8c-1.36-.3-1.7-.25-1.7-.25l-4.28-.19c-.68.02-1.03.14-1.03.14l1.03.13c1.3-.03 5.46.53 5.46.53l1.75.24-1.23-.6z" style="fill:none;stroke:#fff;stroke-width:.102;stroke-linecap:butt;stroke-linejoin:miter;stroke-miterlimit:3.86400008;stroke-dasharray:none"/><path d="m766.15 508.14-1.84-.38-2.43-.31s-1.29-.05-1.33-.06c-.13-.03-.34.05-.34.05-.01.1.03.11.03.11s.16.03.21.03c.06 0 1.41.12 1.41.12l2.86.4 1.89.44.83.21-1.29-.61z" style="fill:#fff;fill-rule:evenodd;stroke:none;stroke-width:.102;stroke-linecap:butt;stroke-linejoin:miter;stroke-miterlimit:3.86400008;stroke-dasharray:none"/><path d="m766.15 508.14-1.84-.38-2.43-.31s-1.29-.05-1.33-.06c-.13-.03-.34.05-.34.05-.01.1.03.11.03.11s.16.03.21.03c.06 0 1.41.12 1.41.12l2.86.4 1.89.44.83.21-1.29-.61z" style="fill:none;stroke:#fff;stroke-width:.102;stroke-linecap:butt;stroke-linejoin:miter;stroke-miterlimit:3.86400008;stroke-dasharray:none"/><path d="m769.43 509.61-1.79-.36-1.81-.35-2.37-.36c-.47-.07-.97 0-.97 0-.18-.03-.13.06-.13.06 0 .1.19.2.26.2.06 0 .32.03.32.03.33-.01 1.85.23 1.85.23l1.79.32s1.36.32 1.52.36c.16.03 1.52.35 1.52.35l-.19-.48z" style="fill:#fff;fill-rule:nonzero;stroke:none;stroke-width:.102;stroke-linecap:butt;stroke-linejoin:miter;stroke-miterlimit:3.86400008;stroke-dasharray:none"/><path d="m769.43 509.61-1.79-.36-1.81-.35-2.37-.36c-.47-.07-.97 0-.97 0-.18-.03-.13.06-.13.06 0 .1.19.2.26.2.06 0 .32.03.32.03.33-.01 1.85.23 1.85.23l1.79.32s1.36.32 1.52.36c.16.03 1.52.35 1.52.35l-.19-.48z" style="fill:none;stroke:#fff;stroke-width:.102;stroke-linecap:butt;stroke-linejoin:miter;stroke-miterlimit:3.86400008;stroke-dasharray:none"/><path d="m766.2 516.83-.23.08h-.26l-.19-.08-.19-.1-.28-.17-.29-.16-.39-.25-.21-.12-.1-.06-.25-.09-.02.07.08.08.17.12.16.13.39.3.35.23.33.19.23.14.18.12.22.14.2-.03.12-.31-.02-.23z" style="fill:#fff;fill-rule:nonzero;stroke:none;stroke-width:.102;stroke-linecap:butt;stroke-linejoin:miter;stroke-miterlimit:3.86400008;stroke-dasharray:none"/><path d="m766.2 516.83-.23.08h-.26l-.19-.08-.19-.1-.28-.17-.29-.16-.39-.25-.21-.12-.1-.06-.25-.09-.02.07.08.08.17.12.16.13.39.3.35.23.33.19.23.14.18.12.22.14.2-.03.12-.31-.02-.23z" style="fill:none;stroke:#fff;stroke-width:.102;stroke-linecap:butt;stroke-linejoin:miter;stroke-miterlimit:3.86400008;stroke-dasharray:none"/><path d="M766.03 517.86c-.04.02-.26.06-.26.06l-.17-.1-.31-.21-.16-.1-.33-.19-.21-.12-.16-.18-.17-.09-.24-.08-.17-.06c-.03-.04-.14 0-.14 0s-.02.08.06.12c.08.04.21.11.27.15.06.04.47.39.47.39l.56.41.47.29s.33.16.37.16c.04 0 .12.21.12.21l.19.06.31-.25s-.06-.14-.08-.2c-.03-.06-.13-.23-.13-.23s-.24-.06-.29-.04" style="fill:#fff;fill-rule:nonzero;stroke:none;stroke-width:.102;stroke-linecap:butt;stroke-linejoin:miter;stroke-miterlimit:3.86400008;stroke-dasharray:none"/><path d="M766.03 517.86c-.04.02-.26.06-.26.06l-.17-.1-.31-.21-.16-.1-.33-.19-.21-.12-.16-.18-.17-.09-.24-.08-.17-.06c-.03-.04-.14 0-.14 0s-.02.08.06.12c.08.04.21.11.27.15.06.04.47.39.47.39l.56.41.47.29s.33.16.37.16c.04 0 .12.21.12.21l.19.06.31-.25s-.06-.14-.08-.2c-.03-.06-.13-.23-.13-.23s-.24-.06-.29-.04z" style="fill:none;stroke:#fff;stroke-width:.102;stroke-linecap:butt;stroke-linejoin:miter;stroke-miterlimit:3.86400008;stroke-dasharray:none"/><path d="m765.58 519.55-.2-.12-.29-.15-.41-.25-.31-.2-.27-.19s0-.02-.15-.08c-.2-.08-.29-.11-.29-.11-.05-.02-.12.11-.08.15.05.04.21.19.21.19l.27.12.35.29.27.2.26.15.23.16.18.11.15.06.12.16.02.27-.18.02-.19-.06-.35-.25-.47-.29-.25-.18-.18-.15s-.19-.1-.25-.1-.17-.01-.21-.02c-.14-.01-.14.1-.14.1.04.11.21.19.21.19l.63.33.31.25.26.17.26.18.24.06.19.04.1-.02.17-.35v-.33l-.21-.35z" style="fill:#fff;fill-rule:nonzero;stroke:none;stroke-width:.102;stroke-linecap:butt;stroke-linejoin:miter;stroke-miterlimit:3.86400008;stroke-dasharray:none"/><path d="m765.58 519.55-.2-.12-.29-.15-.41-.25-.31-.2-.27-.19s0-.02-.15-.08c-.2-.08-.29-.11-.29-.11-.05-.02-.12.11-.08.15.05.04.21.19.21.19l.27.12.35.29.27.2.26.15.23.16.18.11.15.06.12.16.02.27-.18.02-.19-.06-.35-.25-.47-.29-.25-.18-.18-.15s-.19-.1-.25-.1-.17-.01-.21-.02c-.14-.01-.14.1-.14.1.04.11.21.19.21.19l.63.33.31.25.26.17.26.18.24.06.19.04.1-.02.17-.35v-.33l-.21-.35z" style="fill:none;stroke:#fff;stroke-width:.102;stroke-linecap:butt;stroke-linejoin:miter;stroke-miterlimit:3.86400008;stroke-dasharray:none"/><path d="m765.58 521.41-.33-.21-.35-.19-.33-.16-.2-.17-.29-.16-.23-.13-.18-.08-.21-.08s-.08.02-.06.06c.02.04.08.14.08.14s.25.11.27.15c.02.04.29.14.31.18.02.04.2.21.2.21s.15.08.25.12c.1.04.31.21.31.21s.25.11.27.15c.02.04.04.08.1.15.06.06.16.12.16.12s.13.04.17-.02c.04-.06.1-.12.1-.12l-.04-.17z" style="fill:#fff;fill-rule:nonzero;stroke:none;stroke-width:.102;stroke-linecap:butt;stroke-linejoin:miter;stroke-miterlimit:3.86400008;stroke-dasharray:none"/><path d="m765.58 521.41-.33-.21-.35-.19-.33-.16-.2-.17-.29-.16-.23-.13-.18-.08-.21-.08s-.08.02-.06.06c.02.04.08.14.08.14s.25.11.27.15c.02.04.29.14.31.18.02.04.2.21.2.21s.15.08.25.12c.1.04.31.21.31.21s.25.11.27.15c.02.04.04.08.1.15.06.06.16.12.16.12s.13.04.17-.02c.04-.06.1-.12.1-.12l-.04-.17z" style="fill:none;stroke:#fff;stroke-width:.102;stroke-linecap:butt;stroke-linejoin:miter;stroke-miterlimit:3.86400008;stroke-dasharray:none"/><path d="m775.37 521.86-.2-.1-.26-.14-.22-.12-.19-.1-.24-.15-.23-.08-.28-.12-.22-.06-.24-.08s-.1-.08-.15 0c-.04.08-.04.12-.04.12s.09.06.15.08c.06.02.36.18.36.18l.47.25.38.22.31.16.22.14.2.09.18-.09v-.2z" style="fill:#fff;fill-rule:nonzero;stroke:none;stroke-width:.102;stroke-linecap:butt;stroke-linejoin:miter;stroke-miterlimit:3.86400008;stroke-dasharray:none"/><path d="m775.37 521.86-.2-.1-.26-.14-.22-.12-.19-.1-.24-.15-.23-.08-.28-.12-.22-.06-.24-.08s-.1-.08-.15 0c-.04.08-.04.12-.04.12s.09.06.15.08c.06.02.36.18.36.18l.47.25.38.22.31.16.22.14.2.09.18-.09v-.2z" style="fill:none;stroke:#fff;stroke-width:.102;stroke-linecap:butt;stroke-linejoin:miter;stroke-miterlimit:3.86400008;stroke-dasharray:none"/><path d="m775.13 522.73-.18-.04-.31-.2-.3-.18-.34-.27-.29-.14-.67-.34-.54-.23-.21-.14-.3-.08-.16.06.16.18.26.13.71.36.45.25.75.46.65.43.18.12.12-.1.02-.27z" style="fill:#fff;fill-rule:nonzero;stroke:none;stroke-width:.102;stroke-linecap:butt;stroke-linejoin:miter;stroke-miterlimit:3.86400008;stroke-dasharray:none"/><path d="m775.13 522.73-.18-.04-.31-.2-.3-.18-.34-.27-.29-.14-.67-.34-.54-.23-.21-.14-.3-.08-.16.06.16.18.26.13.71.36.45.25.75.46.65.43.18.12.12-.1.02-.27z" style="fill:none;stroke:#fff;stroke-width:.102;stroke-linecap:butt;stroke-linejoin:miter;stroke-miterlimit:3.86400008;stroke-dasharray:none"/><path d="M775.03 523.46h-.26l-.19-.16-.22-.2-.2-.14-.31-.19-.42-.24-.45-.22-.42-.18-.55-.25-.4-.18-.41-.16-.18-.04-.1.1.06.14.32.14.41.14.77.39.77.38.56.37.39.22.18.12.18.11.25.18.2.04.02-.37z" style="fill:#fff;fill-rule:nonzero;stroke:none;stroke-width:.102;stroke-linecap:butt;stroke-linejoin:miter;stroke-miterlimit:3.86400008;stroke-dasharray:none"/><path d="M775.03 523.46h-.26l-.19-.16-.22-.2-.2-.14-.31-.19-.42-.24-.45-.22-.42-.18-.55-.25-.4-.18-.41-.16-.18-.04-.1.1.06.14.32.14.41.14.77.39.77.38.56.37.39.22.18.12.18.11.25.18.2.04.02-.37z" style="fill:none;stroke:#fff;stroke-width:.102;stroke-linecap:butt;stroke-linejoin:miter;stroke-miterlimit:3.86400008;stroke-dasharray:none"/><path d="m774.87 524.33-.35-.08-.22-.1-.39-.22-.46-.29-.55-.32-.59-.28-.4-.23-.53-.26-.34-.16-.45-.16-.28-.12-.29-.09-.3-.01-.24-.03-.2.04.06.13s.14.06.24.08l.59.12.75.24.58.29.83.48.88.49.46.24.45.26s.2.13.24.15c.04.02.12.1.14.14.02.04.08.26.08.26l.15-.1.1-.2.04-.27z" style="fill:#fff;fill-rule:nonzero;stroke:none;stroke-width:.102;stroke-linecap:butt;stroke-linejoin:miter;stroke-miterlimit:3.86400008;stroke-dasharray:none"/><path d="m774.87 524.33-.35-.08-.22-.1-.39-.22-.46-.29-.55-.32-.59-.28-.4-.23-.53-.26-.34-.16-.45-.16-.28-.12-.29-.09-.3-.01-.24-.03-.2.04.06.13s.14.06.24.08l.59.12.75.24.58.29.83.48.88.49.46.24.45.26s.2.13.24.15c.04.02.12.1.14.14.02.04.08.26.08.26l.15-.1.1-.2.04-.27z" style="fill:none;stroke:#fff;stroke-width:.102;stroke-linecap:butt;stroke-linejoin:miter;stroke-miterlimit:3.86400008;stroke-dasharray:none"/><path d="m765.89 518.71-.25-.05-.18-.12-.33-.19-.25-.16-.25-.17-.24-.12-.11-.1-.2-.17-.17-.12s-.16-.06-.2-.06c-.04 0-.15.02-.15.02s0 .12.04.14c.05.02.23.17.23.17l.27.16.22.19.19.14.25.17.26.14.21.17.12.08.13.08.12.1.23-.06.12-.08-.06-.16z" style="fill:#fff;fill-rule:nonzero;stroke:none;stroke-width:.102;stroke-linecap:butt;stroke-linejoin:miter;stroke-miterlimit:3.86400008;stroke-dasharray:none"/><path d="m765.89 518.71-.25-.05-.18-.12-.33-.19-.25-.16-.25-.17-.24-.12-.11-.1-.2-.17-.17-.12s-.16-.06-.2-.06c-.04 0-.15.02-.15.02s0 .12.04.14c.05.02.23.17.23.17l.27.16.22.19.19.14.25.17.26.14.21.17.12.08.13.08.12.1.23-.06.12-.08-.06-.16z" style="fill:none;stroke:#fff;stroke-width:.102;stroke-linecap:butt;stroke-linejoin:miter;stroke-miterlimit:3.86400008;stroke-dasharray:none"/><path d="m765.89 518.71-.25-.05-.18-.12-.33-.19-.25-.16-.25-.17-.24-.12-.11-.1-.2-.17-.17-.12s-.17-.07-.21-.08c-.14-.02-.14.16-.1.18.05.02.23.17.23.17l.27.16.22.19.19.14.25.17.26.14.21.17.12.08.13.08.12.1.23-.06.12-.08-.06-.16z" style="fill:#fff;fill-rule:nonzero;stroke:none;stroke-width:.102;stroke-linecap:butt;stroke-linejoin:miter;stroke-miterlimit:3.86400008;stroke-dasharray:none"/><path d="m765.89 518.71-.25-.05-.18-.12-.33-.19-.25-.16-.25-.17-.24-.12-.11-.1-.2-.17-.17-.12s-.17-.07-.21-.08c-.14-.02-.14.16-.1.18.05.02.23.17.23.17l.27.16.22.19.19.14.25.17.26.14.21.17.12.08.13.08.12.1.23-.06.12-.08-.06-.16z" style="fill:none;stroke:#fff;stroke-width:.102;stroke-linecap:butt;stroke-linejoin:miter;stroke-miterlimit:3.86400008;stroke-dasharray:none"/><path d="m764.45 502.93.1.16.11.2.13.11.11.11.08.22c.03.02-.19-.07-.19-.07l-.2-.09-.13-.09-.15-.1-.1-.54.24.09z" style="fill:#fff;fill-rule:nonzero;stroke:none;stroke-width:.102;stroke-linecap:butt;stroke-linejoin:miter;stroke-miterlimit:3.86400008;stroke-dasharray:none"/><path d="m764.45 502.93.1.16.11.2.13.11.11.11.08.22c.03.02-.19-.07-.19-.07l-.2-.09-.13-.09-.15-.1-.1-.54.24.09z" style="fill:none;stroke:#fff;stroke-width:.000001;stroke-linecap:butt;stroke-linejoin:miter;stroke-miterlimit:3.86400008;stroke-dasharray:none"/><path d="M743.88 493.17c.3.23.37.68.14.98-.24.32-.68.37-.99.14a.692.692 0 0 1-.13-.98c.23-.31.67-.38.98-.14M750.23 484.7l-.33.28-.52-.62-2.43 2.04 5.69 1.44.17.2-3.24 2.72.16.18-.33.27-.86-1.02.33-.27.4.47 2.28-1.91-5.68-1.47-.16-.19 3.69-3.1.83.98zM760.4 483.41l-2.09 1.16-.23-.41.78-.44-1.45-2.6c-.46-.84-1.36-1.14-2.14-.7-.76.42-.95 1.28-.47 2.14l1.45 2.61.79-.44.23.42-2.37 1.31-.23-.42.79-.43-1.57-2.84c-.54-.98-.13-2.14.99-2.76 1.19-.66 2.43-.34 3.05.78l1.46 2.64.78-.43.23.41z" style="fill:#fff;fill-rule:nonzero;stroke:none;stroke-width:.000001;stroke-linecap:butt;stroke-linejoin:miter;stroke-miterlimit:3.86400008;stroke-dasharray:none"/><path d="M766.09 475.87c1.1-.27 1.86.08 2.08.96.22.87-.29 1.55-1.39 1.86.84-.21 1.58.13 1.75.83.2.81-.29 1.48-1.27 1.73l-2.82.7-.11-.43.87-.21-1.12-4.49-.86.22-.11-.43 2.98-.74zm-.6 2.85.83-.21c.76-.19 1.05-.65.87-1.37-.16-.66-.64-.89-1.4-.71l-.82.21.52 2.08zm.58 2.33.82-.2c.56-.14.78-.54.64-1.12-.15-.59-.61-.88-1.19-.73l-.74.18.47 1.87z" style="fill:#fff;fill-rule:evenodd;stroke:none;stroke-width:.000001;stroke-linecap:butt;stroke-linejoin:miter;stroke-miterlimit:3.86400008;stroke-dasharray:none"/><path d="m776.41 475.87-.44.02-.03-.63-2.02.07.08 2.08 1.52-.05-.02-.6.44-.01.06 1.65h-.45l-.02-.57-1.52.05.07 1.99 1.95-.07-.02-.61.43-.02.05 1.33-.45.02v-.24l-3.74.13-.01-.44.89-.03-.16-4.62-.9.03-.01-.44 4.26-.15.04 1.11z" style="fill:#fff;fill-rule:nonzero;stroke:none;stroke-width:.000001;stroke-linecap:butt;stroke-linejoin:miter;stroke-miterlimit:3.86400008;stroke-dasharray:none"/><path d="m785.98 476.3-.33-.05c-.25-.05-.5.06-.75.32l-1.34 1.43c.75.26 1.14.91 1.02 1.7-.15.96-.85 1.36-1.99 1.18l-2.77-.44.07-.47.89.14.71-4.52-.88-.14.07-.44 2.66.42-.07.44-.88-.14-.31 1.95.57.09 1.56-1.69c.37-.4.47-.44.98-.35l.86.13-.07.44zm-4.31 3.96.82.12c.61.1 1-.21 1.1-.87.11-.65-.19-1.14-.75-1.23l-.84-.13-.33 2.11z" style="fill:#fff;fill-rule:evenodd;stroke:none;stroke-width:.000001;stroke-linecap:butt;stroke-linejoin:miter;stroke-miterlimit:3.86400008;stroke-dasharray:none"/><path d="m793.24 479.7-.4-.15.26-.68-1.87-.72-1.63 4.25.83.32-.17.44-2.51-.96.17-.44.84.31 1.64-4.27-.84-.32.16-.42 3.95 1.52-.43 1.12zM798.76 481.9l-.77-.46-2.36 3.93.76.46-.24.41-2.31-1.38.25-.41.76.46 2.36-3.93-.76-.46.23-.38 2.3 1.39-.22.37zM803.3 491.4l.65.61-.32.35-1.76-1.63.33-.35.66.62 2.32-2.49-5.09.55-1.12-1.04.32-.35.61.57.39-.07 2.91-3.12-.65-.61.3-.32 1.75 1.63-.3.32-.66-.62-2.4 2.57 5.29-.61.26.25-3.49 3.74zM808.69 494.55c-.31.22-.76.15-.98-.16a.71.71 0 0 1 .15-.98.706.706 0 1 1 .83 1.14M739.46 505.54l.37-.82-4.22-1.87-.37.81-.4-.18 1.1-2.46.4.18-.36.81 1.86.83 1.32-2.97-1.86-.83-.36.81-.4-.17 1.09-2.46.4.18-.36.81 4.22 1.88.36-.82.41.18-1.1 2.46-.4-.18.36-.81-1.92-.86-1.32 2.97 1.92.86.36-.81.4.18-1.09 2.46-.41-.18zM732.61 514.38l.37-2.36.47.07-.14.88 2.94.47c.95.15 1.74-.38 1.88-1.26.13-.86-.43-1.54-1.4-1.69l-2.95-.47-.14.9-.47-.08.42-2.67.47.08-.14.89 3.2.51c1.1.17 1.77 1.22 1.57 2.48-.21 1.34-1.23 2.12-2.5 1.91l-2.97-.47-.14.89-.47-.08zM738.38 525.96l-.11-.89-4.55.56.11.89-.47.06-.23-1.85 3.76-2.39-4.22-1.38-.22-1.77.47-.06.11.89 4.55-.56-.11-.89.44-.05.29 2.37-.43.06-.11-.89-3.71.46 4.47 1.45-4.2 2.69 3.94-.49-.11-.88.44-.06.33 2.67-.44.06z" style="fill:#fff;fill-rule:nonzero;stroke:none;stroke-width:.000001;stroke-linecap:butt;stroke-linejoin:miter;stroke-miterlimit:3.86400008;stroke-dasharray:none"/><path d="M740.91 532.23c.41 1.06.15 1.86-.7 2.19-.84.32-1.57-.1-2.01-1.16.31.82.06 1.59-.61 1.84-.78.3-1.51-.11-1.87-1.05l-1.04-2.71.41-.16.32.83 4.31-1.65-.32-.84.41-.15 1.1 2.86zm-2.9-.25.31.8c.28.74.78.97 1.46.7.64-.24.82-.74.53-1.48l-.3-.78-2 .76zm-2.25.86.31.79c.21.55.63.72 1.19.5.56-.21.79-.71.58-1.27l-.28-.71-1.8.69zM744.75 538.99c.86 1.23.5 3.08-.78 3.97-1.26.88-3.11.58-3.97-.65-.87-1.25-.53-3.08.74-3.97 1.28-.9 3.14-.6 4.01.65m-4.35 3.03c.58.81 1.91.87 3 .11 1.1-.78 1.51-2.04.93-2.87-.57-.82-1.91-.85-3.01-.08-1.08.76-1.49 2.02-.92 2.84" style="fill:#fff;fill-rule:evenodd;stroke:none;stroke-width:.000001;stroke-linecap:butt;stroke-linejoin:miter;stroke-miterlimit:3.86400008;stroke-dasharray:none"/><path d="m750.68 547.7-.31-.3.51-.52-1.44-1.39-3.16 3.27.64.62-.33.34-1.94-1.87.33-.34.65.62 3.18-3.3-.64-.62.3-.31 3.04 2.93-.83.87z" style="fill:#fff;fill-rule:nonzero;stroke:none;stroke-width:.000001;stroke-linecap:butt;stroke-linejoin:miter;stroke-miterlimit:3.86400008;stroke-dasharray:none"/><path d="m753.51 548.42 2.39 1.5c1.39.87 1.82 2.52.98 3.86-.81 1.3-2.52 1.66-3.9.8l-2.39-1.49.23-.38.76.48 2.45-3.92-.76-.47.24-.38zm1.27 1.36-2.41 3.86.8.49c.93.59 2.17.18 2.85-.91.68-1.09.49-2.36-.45-2.95l-.79-.49z" style="fill:#fff;fill-rule:evenodd;stroke:none;stroke-width:.000001;stroke-linecap:butt;stroke-linejoin:miter;stroke-miterlimit:3.86400008;stroke-dasharray:none"/><path d="m764.43 554.3-.95-.32-1.5 4.33 1.65.57.21-.63.42.14-.45 1.3-.42-.14.08-.23-4.14-1.42-.08.22-.4-.14.45-1.3.4.14-.22.63 1.65.56 1.49-4.33-.96-.33.15-.42 2.77.96-.15.41zM769.36 558.28l-2.23-.43.17-.89 2.24.44-.18.88zM779.4 561.02l-2.39.04-.01-.47.89-.02-.05-2.97c-.01-.97-.67-1.65-1.56-1.63-.87.01-1.44.69-1.43 1.66l.06 2.99.9-.01.01.47-2.7.05-.01-.48.9-.01-.05-3.24c-.02-1.12.89-1.96 2.17-1.98 1.35-.02 2.3.84 2.32 2.13l.05 3.01.89-.02.01.48zM789.14 558.58l.86-.23.12.46-2.31.62-.12-.46.87-.23-.88-3.29-2.23 4.61-1.48.4-.12-.46.8-.22.15-.36-1.1-4.13-.87.23-.11-.42 2.31-.62.11.42-.87.24.91 3.39 2.29-4.8.34-.09 1.33 4.94zM794.43 551.2l-.79.42 2.15 4.05.79-.42.22.42-2.37 1.26-.22-.42.79-.42-2.16-4.04-.79.42-.2-.39 2.37-1.27.21.39zM803.31 550.72l.4-.3.29.38-1.38 1.04-.29-.38.54-.41-3.41-2.03.99 3.86.6-.45.28.38-1.84 1.39-.29-.38.47-.35-1.4-5.42.23-.17 4.81 2.84zM806.37 542.02l-.3.33-.47-.42-1.35 1.5 1.55 1.39 1.02-1.13-.45-.4.3-.32 1.23 1.1-.3.32-.43-.38-1.02 1.13 1.48 1.33 1.3-1.45-.45-.41.28-.32.99.89-.29.33-.18-.16-2.5 2.78-.33-.3.6-.66-3.43-3.09-.6.66-.33-.29 2.85-3.17.83.74z" style="fill:#fff;fill-rule:nonzero;stroke:none;stroke-width:.000001;stroke-linecap:butt;stroke-linejoin:miter;stroke-miterlimit:3.86400008;stroke-dasharray:none"/><path d="m810.59 533.88-.16.29c-.13.23-.11.5.05.82l.88 1.75c.5-.62 1.25-.76 1.95-.37.84.46.99 1.25.43 2.26l-1.36 2.46-.42-.23.43-.78-4.01-2.22-.43.78-.38-.22 1.3-2.35.39.22-.44.78 1.73.95.28-.51-1.05-2.04c-.26-.48-.25-.59 0-1.04l.42-.76.39.21zm2.24 5.41.41-.73c.3-.54.14-1.01-.45-1.34-.57-.31-1.14-.2-1.41.3l-.41.74 1.86 1.03z" style="fill:#fff;fill-rule:evenodd;stroke:none;stroke-width:.000001;stroke-linecap:butt;stroke-linejoin:miter;stroke-miterlimit:3.86400008;stroke-dasharray:none"/><path d="M811.62 530.63c-.11-.52-.1-.97.04-1.4.3-.94 1.18-1.43 2.03-1.15.73.23 1.01.63 1.23 1.77.06.29.13.61.21.96.1.46.22.63.51.73.47.15.87-.1 1.05-.64.1-.3.11-.52.01-1.04l-.57-.19.14-.42 1.36.45-.14.41-.28-.09c.08.39.05.74-.07 1.12-.3.9-1.18 1.41-1.99 1.14-.67-.22-.95-.68-1.13-1.84-.17-1.1-.37-1.5-.79-1.64-.45-.14-.9.16-1.08.73-.13.38-.13.73 0 1.28l.59.19-.14.42-1.41-.46.13-.42.3.09zM813.83 521.79l-.12.89 4.54.63.12-.88.47.07-.37 2.66-.47-.06.12-.89-4.54-.64-.12.89-.44-.06.38-2.67.43.06zM813.93 514.85l.04 1.01 4.58-.16-.06-1.74-.67.03-.01-.44 1.38-.05.01.44-.24.01.16 4.38.23-.01.02.43-1.38.05-.02-.43.67-.03-.06-1.73-4.58.16.03 1.01-.44.01-.1-2.92.44-.02z" style="fill:#fff;fill-rule:nonzero;stroke:none;stroke-width:.000001;stroke-linecap:butt;stroke-linejoin:miter;stroke-miterlimit:3.86400008;stroke-dasharray:none"/><path d="m812.2 505.94.12.5 5.62.86.07.3-4.53 3.49.11.43-.43.11-.4-1.62.43-.1.16.65 1.12-.86-.52-2.11-1.39-.2.13.51-.43.1-.48-1.94.42-.12zm6.65-.45c.32-.08.65.12.73.43.08.32-.12.66-.44.74a.626.626 0 0 1-.73-.45c-.08-.31.12-.64.44-.72m.51 2.04c.32-.08.65.12.73.44.08.32-.12.65-.44.73a.611.611 0 0 1-.73-.44c-.08-.32.12-.65.44-.73m-4.49 1.86 1.82-1.39-2.25-.33.43 1.72z" style="fill:#fff;fill-rule:evenodd;stroke:none;stroke-width:.000001;stroke-linecap:butt;stroke-linejoin:miter;stroke-miterlimit:3.86400008;stroke-dasharray:none"/><path d="m809.72 500.18.43.92 4.16-1.94-.74-1.58-.6.29-.19-.4 1.25-.59.19.4-.22.1 1.85 3.98.22-.11.18.39-1.25.59-.18-.39.6-.28-.73-1.58-4.16 1.94.43.91-.4.19-1.24-2.65.4-.19z" style="fill:#fff;fill-rule:nonzero;stroke:none;stroke-width:.000001;stroke-linecap:butt;stroke-linejoin:miter;stroke-miterlimit:3.86400008;stroke-dasharray:none"/></g></svg>